<svg width="327" height="177" viewBox="0 0 327 177" fill="none" xmlns="http://www.w3.org/2000/svg">
<path d="M59.5376 175.634C47.9986 172.666 37.802 165.955 30.5825 156.575C23.3629 147.196 19.5385 135.693 19.7221 123.91C19.7679 120.974 20.0802 117.976 21.3289 115.312C22.5776 112.648 24.897 110.343 27.7983 109.712C30.9646 109.023 34.3058 110.431 36.6655 112.629C39.0251 114.827 40.5723 117.726 41.9958 120.605C50.5698 137.947 57.0842 156.554 59.5231 175.704L59.5376 175.634Z" fill="#F2F2F2"/>
<path d="M26.3618 110.291L32.371 123.785L38.3801 137.28C40.2832 141.554 42.1827 145.829 44.1498 150.075C46.0996 154.283 48.1162 158.462 50.2675 162.574C52.4158 166.68 54.699 170.719 57.1773 174.639C57.486 175.128 57.7976 175.614 58.1123 176.099C58.3301 176.434 58.8745 176.123 58.6552 175.785C56.1293 171.893 53.8019 167.879 51.619 163.791C49.4337 159.698 47.3913 155.531 45.4243 151.332C43.4468 147.11 41.5454 142.854 39.649 138.597C37.6528 134.115 35.657 129.633 33.6616 125.151L27.6524 111.656L26.9046 109.977C26.742 109.612 26.2002 109.928 26.3618 110.291V110.291Z" fill="white"/>
<path d="M57.0308 175.728C50.2292 177.266 43.1021 176.502 36.7921 173.559C30.4821 170.616 25.3546 165.664 22.2314 159.497C21.4533 157.961 20.7967 156.321 20.7173 154.605C20.6379 152.888 21.2127 151.073 22.5465 149.971C24.0023 148.769 26.1216 148.608 27.947 149.12C29.7723 149.631 31.3675 150.724 32.8929 151.839C42.081 158.554 50.5455 166.477 57.0424 175.769L57.0308 175.728Z" fill="#F2F2F2"/>
<path d="M21.9588 150.655L28.7645 156.058L35.5702 161.461C37.7256 163.172 39.8796 164.885 42.0605 166.564C44.2223 168.229 46.4107 169.86 48.6507 171.421C50.8875 172.98 53.1761 174.467 55.5336 175.841C55.8272 176.013 56.1219 176.182 56.4176 176.35C56.6223 176.466 56.82 176.159 56.6138 176.042C54.2394 174.695 51.9347 173.232 49.6846 171.692C47.4321 170.15 45.2338 168.532 43.0656 166.877C40.8858 165.213 38.7362 163.51 36.5887 161.806C34.3282 160.011 32.0678 158.217 29.8076 156.422L23.0019 151.02L22.1549 150.347C21.9708 150.201 21.7757 150.51 21.9588 150.655Z" fill="white"/>
<path d="M270.416 175.297C286.507 171.157 300.727 161.797 310.795 148.718C320.863 135.639 326.196 119.597 325.94 103.164C325.876 99.07 325.44 94.8898 323.699 91.1744C321.958 87.4589 318.723 84.2454 314.677 83.365C310.262 82.4042 305.602 84.3682 302.312 87.4329C299.021 90.4975 296.863 94.5408 294.878 98.5559C282.921 122.739 273.837 148.688 270.436 175.394L270.416 175.297Z" fill="#F2F2F2"/>
<path d="M316.681 84.1718L308.301 102.991L299.921 121.81C297.267 127.77 294.618 133.732 291.875 139.653C289.155 145.521 286.343 151.349 283.343 157.083C280.347 162.809 277.163 168.441 273.707 173.909C273.277 174.59 272.842 175.268 272.403 175.944C272.1 176.412 271.34 175.978 271.646 175.506C275.169 170.079 278.414 164.481 281.458 158.78C284.506 153.072 287.354 147.262 290.097 141.406C292.855 135.519 295.507 129.583 298.151 123.646C300.935 117.396 303.718 111.146 306.501 104.895L314.881 86.0764L315.924 83.7345C316.15 83.2252 316.906 83.6657 316.681 84.1718Z" fill="white"/>
<path d="M273.911 175.427C283.396 177.572 293.335 176.507 302.135 172.402C310.935 168.298 318.085 161.393 322.441 152.793C323.526 150.65 324.441 148.364 324.552 145.97C324.663 143.576 323.861 141.045 322.001 139.508C319.971 137.831 317.016 137.608 314.47 138.321C311.924 139.034 309.7 140.557 307.573 142.112C294.759 151.477 282.955 162.526 273.895 175.483L273.911 175.427Z" fill="#F2F2F2"/>
<path d="M322.821 140.462L313.33 147.996L303.839 155.531C300.833 157.917 297.829 160.306 294.788 162.648C291.773 164.969 288.721 167.244 285.598 169.421C282.478 171.594 279.287 173.669 275.999 175.585C275.59 175.824 275.179 176.06 274.766 176.294C274.481 176.456 274.205 176.028 274.493 175.865C277.804 173.987 281.018 171.947 284.156 169.799C287.297 167.648 290.363 165.392 293.386 163.083C296.426 160.763 299.424 158.389 302.419 156.012C305.571 153.51 308.723 151.007 311.875 148.505L321.366 140.97L322.547 140.033C322.804 139.829 323.076 140.259 322.821 140.462Z" fill="white"/>
<path d="M81.0679 54.4989V54.5026L77.9368 57.089L56.4059 61.8164C55.7432 62.0812 55.1399 62.4725 54.6302 62.9678C54.1206 63.4631 53.7147 64.0528 53.4356 64.7032C52.872 66.0167 52.8594 67.4977 53.4006 68.8203C53.6685 69.4753 54.0644 70.0716 54.5655 70.5753C55.0667 71.0791 55.6633 71.4803 56.3213 71.7561C57.6502 72.3132 59.1486 72.3256 60.4868 71.7907L74.2012 69.5087C74.9609 69.384 75.711 69.2079 76.4463 68.9817C76.7354 68.8964 77.0208 68.7999 77.3024 68.6997C78.5213 63.4502 80.2331 58.3245 82.4156 53.3894L81.0679 54.4989Z" fill="#2F2E41"/>
<path d="M259.9 67.5606L256.916 67.542L255.32 67.5346L246.179 51.7382C246.255 51.5729 246.322 51.4032 246.377 51.2298C247.395 48.1277 244.711 45.9941 242.154 46.0386C241.863 46.0383 241.573 46.0719 241.29 46.1388C246.327 55.1464 249.704 64.9665 251.266 75.1415C251.525 75.2141 251.79 75.2662 252.058 75.2974C253.452 75.4216 254.857 75.3743 256.24 75.1564C258.102 74.9226 259.863 74.5924 260.802 74.6629L259.9 67.5606Z" fill="#A0616A"/>
<path d="M269.74 67.8612L258.77 66.3546C258.369 66.2998 257.96 66.3896 257.62 66.6076C257.279 66.8255 257.03 67.1572 256.916 67.542C256.893 67.6198 256.875 67.6992 256.863 67.7795L255.985 74.0246C255.925 74.4626 256.043 74.906 256.312 75.2588C256.581 75.6117 256.98 75.8455 257.423 75.9096L268.393 77.4162C269.675 77.5928 270.975 77.2589 272.008 76.4878C273.041 75.7168 273.721 74.5718 273.9 73.3047C274.079 72.0376 273.741 70.7523 272.961 69.7314C272.181 68.7105 271.022 68.0378 269.74 67.8611V67.8612Z" fill="#818CF8"/>
<path d="M252.058 75.2973C250.54 65.0406 247.186 55.1329 242.154 46.0385C234.063 31.4166 221.957 19.3522 207.23 11.2363C192.503 3.12038 175.755 -0.716585 158.917 0.167749C142.08 1.05208 125.837 6.62171 112.064 16.2345C98.2897 25.8473 87.5449 39.1119 81.0679 54.4989V54.5026C79.1037 59.1867 77.5573 64.0315 76.4463 68.9817C75.0221 75.3295 74.3058 81.8124 74.3101 88.3144C74.3101 111.737 83.724 134.2 100.481 150.762C117.238 167.324 139.965 176.629 163.663 176.629C187.36 176.629 210.087 167.324 226.844 150.762C243.601 134.2 253.015 111.737 253.015 88.3144C253.017 83.9582 252.697 79.6076 252.058 75.2973ZM163.663 175.887C114.808 175.887 75.061 136.602 75.061 88.3144C75.0469 76.2958 77.5511 64.4044 82.4156 53.3894C96.0888 22.4311 127.362 0.742109 163.663 0.742109C197.057 0.742109 226.194 19.0989 241.29 46.1387C246.327 55.1463 249.704 64.9664 251.265 75.1415C251.931 79.5016 252.265 83.9049 252.264 88.3144C252.264 136.602 212.517 175.887 163.663 175.887Z" fill="#3F3D56"/>
<path d="M134.661 79.4088C130.313 79.4081 126.101 77.9158 122.743 75.1866C119.385 72.4575 117.09 68.6608 116.249 64.445C115.409 60.2292 116.075 55.8557 118.134 52.0714C120.193 48.2872 123.518 45.3268 127.54 43.696C131.562 42.0651 136.032 41.8649 140.187 43.1295C144.342 44.3941 147.924 47.0451 150.321 50.6297C152.718 54.2144 153.782 58.5104 153.331 62.7841C152.879 67.0578 150.941 71.0441 147.847 74.0622C144.34 77.4981 139.598 79.4207 134.661 79.4088ZM134.661 43.0441C131.096 43.0438 127.611 44.0883 124.648 46.0455C121.684 48.0027 119.374 50.7846 118.009 54.0395C116.645 57.2944 116.288 60.876 116.983 64.3314C117.679 67.7868 119.395 70.9609 121.916 73.4521C124.436 75.9433 127.648 77.6398 131.144 78.3271C134.64 79.0143 138.263 78.6615 141.557 77.3131C144.85 75.9648 147.664 73.6815 149.645 70.752C151.625 67.8225 152.681 64.3785 152.681 60.8554C152.676 56.1332 150.775 51.6059 147.397 48.2668C144.019 44.9277 139.438 43.0494 134.661 43.0441Z" fill="#3F3D56"/>
<path d="M192.477 79.4088C188.764 79.4088 185.135 78.3207 182.048 76.282C178.961 74.2433 176.555 71.3457 175.134 67.9555C173.713 64.5653 173.342 60.8348 174.066 57.2357C174.79 53.6367 176.578 50.3308 179.203 47.7361C181.829 45.1413 185.173 43.3743 188.815 42.6584C192.456 41.9425 196.23 42.3099 199.66 43.7142C203.09 45.1185 206.022 47.4965 208.085 50.5476C210.147 53.5987 211.248 57.1858 211.248 60.8553C211.243 65.7743 209.263 70.4903 205.744 73.9685C202.225 77.4467 197.454 79.4033 192.477 79.4088ZM192.477 43.044C188.913 43.044 185.429 44.0886 182.465 46.0458C179.502 48.0029 177.192 50.7847 175.828 54.0393C174.464 57.2938 174.107 60.8751 174.802 64.3302C175.498 67.7852 177.214 70.9589 179.734 73.4499C182.255 75.9408 185.466 77.6372 188.961 78.3244C192.457 79.0117 196.08 78.659 199.373 77.3109C202.666 75.9628 205.48 73.6798 207.461 70.7508C209.441 67.8217 210.498 64.3781 210.498 60.8553C210.492 56.1331 208.592 51.6059 205.213 48.2667C201.835 44.9276 197.255 43.0494 192.477 43.044Z" fill="#3F3D56"/>
<path d="M147.583 73.7983C144.14 77.1555 139.497 79.0378 134.661 79.0378C129.824 79.0378 125.182 77.1555 121.738 73.7983C122.889 71.3713 124.716 69.3187 127.004 67.8808C129.293 66.4429 131.949 65.6793 134.661 65.6793C137.372 65.6793 140.028 66.4429 142.317 67.8808C144.605 69.3187 146.432 71.3713 147.583 73.7983Z" fill="#3F3D56"/>
<path d="M205.399 73.7983C201.956 77.1555 197.314 79.0378 192.477 79.0378C187.64 79.0378 182.998 77.1555 179.555 73.7983C180.705 71.3713 182.532 69.3187 184.821 67.8808C187.109 66.4429 189.765 65.6793 192.477 65.6793C195.189 65.6793 197.844 66.4429 200.133 67.8808C202.421 69.3187 204.248 71.3713 205.399 73.7983Z" fill="#3F3D56"/>
<path d="M151.555 91.283C151.555 89.2337 158.278 87.5723 166.572 87.5723C174.866 87.5723 181.589 89.2337 181.589 91.283C181.589 93.3324 174.866 100.931 166.572 100.931C158.278 100.931 151.555 93.3324 151.555 91.283Z" fill="#3F3D56"/>
<path d="M116.452 90.7264C119.977 90.7264 122.835 87.9021 122.835 84.4182C122.835 80.9343 119.977 78.11 116.452 78.11C112.927 78.11 110.07 80.9343 110.07 84.4182C110.07 87.9021 112.927 90.7264 116.452 90.7264Z" fill="#FF6584"/>
<path d="M210.873 90.912C214.398 90.912 217.255 88.0877 217.255 84.6038C217.255 81.1199 214.398 78.2956 210.873 78.2956C207.348 78.2956 204.491 81.1199 204.491 84.6038C204.491 88.0877 207.348 90.912 210.873 90.912Z" fill="#FF6584"/>
<path d="M74.2823 171.94L78.8851 171.939L81.0746 154.392L74.2816 154.393L74.2823 171.94Z" fill="#FFB8B8"/>
<path d="M87.7618 176.905L73.2962 176.906L73.2959 171.382L82.1725 171.382C83.6548 171.382 85.0764 171.964 86.1246 172.999C87.1728 174.035 87.7617 175.44 87.7618 176.905Z" fill="#2F2E41"/>
<path d="M51.3811 171.94L55.9838 171.939L58.1734 154.392L51.3803 154.393L51.3811 171.94Z" fill="#FFB8B8"/>
<path d="M64.8605 176.905L50.3949 176.906L50.3946 171.382L59.2712 171.382C60.7535 171.382 62.1751 171.964 63.2233 172.999C64.2715 174.035 64.8604 175.44 64.8605 176.905Z" fill="#2F2E41"/>
<path d="M75.5404 100.423L79.5863 132.107C80.1425 136.463 80.5317 140.835 80.7538 145.223L81.8439 166.77C81.854 166.971 81.8228 167.172 81.752 167.36C81.6812 167.549 81.5724 167.721 81.4321 167.867C81.2918 168.013 81.123 168.129 80.936 168.208C80.7489 168.288 80.5476 168.329 80.344 168.329H74.2033C73.8441 168.329 73.4968 168.201 73.2244 167.97C72.952 167.738 72.7725 167.418 72.7186 167.067L67.196 131.105C67.1694 130.932 67.0815 130.774 66.948 130.658C66.8144 130.543 66.6438 130.478 66.4664 130.475C66.289 130.472 66.1163 130.531 65.9788 130.642C65.8414 130.753 65.7481 130.908 65.7155 131.081L59.0623 166.301C58.9965 166.618 58.8279 166.905 58.5822 167.118C58.3365 167.331 58.0271 167.459 57.7009 167.483L52.0492 167.837C51.8394 167.852 51.6286 167.824 51.4307 167.753C51.2327 167.683 51.052 167.572 50.9001 167.428C50.7483 167.284 50.6287 167.11 50.5492 166.918C50.4697 166.725 50.432 166.518 50.4386 166.311L52.2637 108.586L75.5404 100.423Z" fill="#2F2E41"/>
<path d="M57.6143 55.2934C62.7069 55.2934 66.8352 51.213 66.8352 46.1796C66.8352 41.1461 62.7069 37.0657 57.6143 37.0657C52.5217 37.0657 48.3933 41.1461 48.3933 46.1796C48.3933 51.213 52.5217 55.2934 57.6143 55.2934Z" fill="#FFB8B8"/>
<path d="M50.3865 109.328C52.6391 114.523 62.4003 118.234 64.6529 110.813C66.3949 105.076 73.2953 102.664 76.34 101.866C76.7228 101.765 77.0501 101.52 77.251 101.182C77.452 100.845 77.5105 100.443 77.4138 100.063L68.9027 67.0192C68.407 65.0943 67.4197 63.3274 66.0353 61.8877C64.6509 60.4479 62.9158 59.3835 60.9961 58.7963C54.231 56.7257 47.0978 60.9893 45.9526 67.8949C45.6399 69.8312 45.4406 71.7839 45.3558 73.7429C44.6498 88.3223 48.9035 105.907 50.3865 109.328Z" fill="#818CF8"/>
<path d="M101.603 79.5598C101.149 79.2498 100.632 79.0419 100.088 78.9509C99.5433 78.8598 98.9856 78.8878 98.4535 79.0328C97.9215 79.1779 97.4281 79.4364 97.0081 79.7903C96.5881 80.1442 96.2517 80.5849 96.0226 81.0812L82.6659 79.8365L85.9407 85.9196L98.1224 86.169C98.9915 86.4941 99.951 86.4928 100.819 86.1654C101.687 85.838 102.404 85.2072 102.833 84.3925C103.262 83.5778 103.374 82.6359 103.147 81.7452C102.92 80.8545 102.371 80.077 101.603 79.5598Z" fill="#FFB8B8"/>
<path d="M94.961 86.3251C94.8023 86.4995 94.6083 86.639 94.3915 86.7344C94.1747 86.8299 93.94 86.8791 93.7027 86.8791L76.2677 86.4852C72.0474 86.482 67.972 84.9638 64.7996 82.213L54.3455 73.1511C53.7178 72.8117 53.1639 72.3534 52.7157 71.8022C52.2674 71.2511 51.9334 70.618 51.7329 69.9392C51.5325 69.2604 51.4693 68.5491 51.5472 67.8462C51.6251 67.1432 51.8425 66.4623 52.1869 65.8425C52.5313 65.2227 52.996 64.676 53.5543 64.2339C54.1127 63.7917 54.7538 63.4627 55.4409 63.2656C56.128 63.0686 56.8477 63.0074 57.5588 63.0856C58.2699 63.1637 58.9584 63.3797 59.585 63.7211L76.899 77.2248L93.7572 80.4358C94.0943 80.5176 94.398 80.6998 94.627 80.9578C94.856 81.2157 94.9993 81.5369 95.0376 81.878L95.3838 85.0289C95.4207 85.3668 95.3526 85.7078 95.1885 86.0065C95.1256 86.1212 95.0493 86.2281 94.961 86.3251Z" fill="#2F2E41"/>
<path d="M50.6153 53.634C50.8139 53.7504 51.0369 53.82 51.2671 53.8375C51.4973 53.855 51.7285 53.82 51.9427 53.735C52.157 53.65 52.3486 53.5175 52.5027 53.3476C52.6568 53.1777 52.7693 52.975 52.8314 52.7552L52.8366 52.7345C53.0039 52.0428 52.8649 51.3205 52.8169 50.6108C52.7689 49.9012 52.8392 49.1216 53.3281 48.5999C54.2397 47.6273 55.8614 48.1428 57.1795 47.8969C57.9515 47.7266 58.6343 47.284 59.1001 46.652C59.5659 46.0201 59.7826 45.242 59.7099 44.4634C59.6911 44.3159 59.6617 44.1683 59.6287 44.0207C59.5462 43.6468 59.5526 43.2591 59.6473 42.888C59.742 42.5169 59.9224 42.1726 60.1743 41.8821C60.4263 41.5915 60.743 41.3626 61.0995 41.2134C61.4561 41.0642 61.8427 40.9986 62.2292 41.022C63.5613 41.0973 64.9991 41.4962 66.1012 40.521C66.5053 40.1364 66.7858 39.6426 66.9077 39.1014C67.0297 38.5602 66.9877 37.9955 66.787 37.4777C66.1577 35.6824 64.3791 34.7425 62.619 34.2258C60.4422 33.6042 58.1525 33.4698 55.9166 33.8324C53.6806 34.195 51.5545 35.0456 49.6928 36.3222C48.5811 37.0967 47.5428 38.0699 47.069 39.33C46.5952 40.5901 46.8238 42.1799 47.8922 43.0117C47.064 43.8784 46.4808 44.9451 46.201 46.1047C45.9212 47.2644 45.9547 48.4763 46.2981 49.6192C46.8258 51.2999 49.3445 52.9113 50.6153 53.634Z" fill="#2F2E41"/>
<path d="M249.335 171.87H244.733L242.543 154.323L249.337 154.323L249.335 171.87Z" fill="#A0616A"/>
<path d="M241.445 171.312H250.322V176.836H235.856C235.856 176.11 236.001 175.392 236.282 174.722C236.563 174.052 236.974 173.443 237.493 172.93C238.012 172.417 238.628 172.01 239.306 171.732C239.984 171.455 240.711 171.312 241.445 171.312Z" fill="#2F2E41"/>
<path d="M281.998 171.87H277.395L275.206 154.323L281.999 154.323L281.998 171.87Z" fill="#A0616A"/>
<path d="M274.108 171.312H282.984V176.836H268.519C268.519 176.11 268.663 175.392 268.944 174.722C269.225 174.052 269.637 173.443 270.156 172.93C270.675 172.417 271.291 172.01 271.969 171.732C272.647 171.455 273.374 171.312 274.108 171.312Z" fill="#2F2E41"/>
<path d="M249.413 161.002C249.363 161.002 249.313 161 249.263 160.996L242.748 160.48C242.49 160.46 242.239 160.387 242.01 160.266C241.782 160.145 241.581 159.978 241.421 159.776C241.261 159.575 241.145 159.343 241.08 159.095C241.015 158.846 241.003 158.588 241.045 158.335L250.922 97.9545L251.583 89.4381C251.613 89.0399 251.772 88.6619 252.037 88.3608C252.302 88.0596 252.659 87.8516 253.054 87.7679L262.988 85.6201C263.353 85.5395 263.734 85.5692 264.082 85.7056C264.43 85.8419 264.728 86.0786 264.938 86.3847L267.361 89.8842C268.312 91.2445 269.346 92.5468 270.456 93.7837C272.175 95.7184 275.097 100.014 275.359 107.044C275.43 109.353 275.672 111.655 276.085 113.929L284.083 156.513C284.124 156.762 284.112 157.018 284.049 157.263C283.986 157.508 283.873 157.738 283.717 157.938C283.561 158.138 283.365 158.305 283.142 158.428C282.918 158.551 282.671 158.627 282.417 158.652L276.241 159.114C275.8 159.157 275.357 159.044 274.992 158.793C274.627 158.543 274.365 158.173 274.251 157.749L263.297 117.488C263.276 117.409 263.228 117.339 263.163 117.289C263.097 117.24 263.017 117.213 262.934 117.213C262.851 117.213 262.771 117.24 262.705 117.29C262.64 117.34 262.593 117.41 262.572 117.489L251.226 159.624C251.12 160.019 250.884 160.368 250.556 160.617C250.229 160.866 249.827 161.001 249.413 161.002Z" fill="#2F2E41"/>
<path d="M266.737 58.2562C271.829 58.2562 275.958 54.1758 275.958 49.1424C275.958 44.109 271.829 40.0286 266.737 40.0286C261.644 40.0286 257.516 44.109 257.516 49.1424C257.516 54.1758 261.644 58.2562 266.737 58.2562Z" fill="#A0616A"/>
<path d="M251.108 90.8082L250.917 77.7932C250.215 69.4692 253.944 65.0986 257.197 62.9001C258.036 62.3405 258.981 61.955 259.975 61.7669C260.969 61.5789 261.991 61.5922 262.98 61.8061L270.237 63.3567C271.247 63.5743 272.203 63.9923 273.045 64.5852C273.888 65.1782 274.6 65.9338 275.138 66.8065C275.653 67.6298 275.991 68.5491 276.132 69.5072C276.272 70.4652 276.211 71.4415 275.954 72.3754C275.449 74.1235 274.331 75.6367 272.8 76.6434C266.565 80.9941 266.125 88.302 266.122 88.3756L266.114 88.5267L251.108 90.8082Z" fill="#818CF8"/>
<path d="M230.967 83.1983C230.591 83.6419 230.124 84.0017 229.598 84.254C229.071 84.5063 228.496 84.6454 227.911 84.6622C227.326 84.6789 226.743 84.5729 226.203 84.3511C225.662 84.1293 225.175 83.7967 224.774 83.3754C221.137 79.6058 227.082 73.9455 230.732 77.7232C230.861 77.8535 230.98 77.9924 231.09 78.1389L249.497 77.6866L251.694 73.715L258.446 76.3063C257.149 78.2932 255.661 86.0913 252.271 85.7117C251.826 85.7235 231.422 83.2304 230.967 83.1983Z" fill="#A0616A"/>
<path d="M255.591 80.1932L250.445 76.461C250.084 76.1987 249.844 75.8056 249.776 75.368C249.708 74.9304 249.818 74.4841 250.083 74.1269L256.635 65.3018C257.015 64.7909 257.492 64.3589 258.04 64.0303C258.588 63.7017 259.196 63.4831 259.83 63.3869C260.463 63.2907 261.11 63.3188 261.733 63.4697C262.355 63.6205 262.942 63.891 263.458 64.2659C263.975 64.6407 264.412 65.1126 264.745 65.6544C265.077 66.1962 265.298 66.7974 265.395 67.4237C265.492 68.05 265.464 68.689 265.311 69.3043C265.158 69.9197 264.884 70.4992 264.505 71.0099L257.952 79.835C257.687 80.1916 257.289 80.4296 256.846 80.4967C256.404 80.5639 255.952 80.4548 255.591 80.1932Z" fill="#818CF8"/>
<path d="M264.495 46.8646C263.192 47.2724 261.838 47.5028 260.472 47.5494C259.107 47.5341 257.688 47.1053 256.766 46.11C255.456 44.6963 255.473 42.3931 256.487 40.7589C257.5 39.1247 259.32 38.1067 261.201 37.6406C263.082 37.1745 265.047 37.1964 266.986 37.2223C269.289 35.5629 272.646 35.8153 275.009 37.3899C277.372 38.9644 278.816 41.6335 279.429 44.3842C280.042 47.1349 279.908 49.9908 279.676 52.7981C279.548 54.3364 279.679 56.3337 281.166 56.8053C282.104 57.103 283.118 56.5569 283.791 55.8449C284.463 55.1329 284.933 54.2482 285.636 53.5655C287.134 52.1105 289.537 51.8155 291.516 52.5106C293.495 53.2058 295.074 54.7538 296.187 56.5141C297.705 58.9156 298.447 61.7175 298.313 64.5463C298.179 67.3751 297.176 70.0964 295.438 72.3474C293.699 74.5984 291.308 76.2722 288.583 77.1457C285.857 78.0192 282.927 78.0509 280.183 77.2365C275.106 75.7297 271.272 71.4944 268.806 66.8564C265.643 60.8793 264.334 54.1127 265.044 47.4041L264.495 46.8646Z" fill="#2F2E41"/>
<path d="M326.625 177H0.375431C0.27586 177 0.180368 176.961 0.109961 176.891C0.0395539 176.822 0 176.727 0 176.629C0 176.531 0.0395539 176.436 0.109961 176.367C0.180368 176.297 0.27586 176.258 0.375431 176.258H326.625C326.724 176.258 326.82 176.297 326.89 176.367C326.96 176.436 327 176.531 327 176.629C327 176.727 326.96 176.822 326.89 176.891C326.82 176.961 326.724 177 326.625 177Z" fill="#3F3D56"/>
</svg>
