<?xml version="1.0" standalone="no"?><!DOCTYPE svg PUBLIC "-//W3C//DTD SVG 1.1//EN" "http://www.w3.org/Graphics/SVG/1.1/DTD/svg11.dtd"><svg t="1651394984234" class="icon" viewBox="0 0 1024 1024" version="1.1" xmlns="http://www.w3.org/2000/svg" p-id="1223" width="48" height="48" xmlns:xlink="http://www.w3.org/1999/xlink"><defs><style type="text/css"></style></defs><path d="M946.197333 559.968c0.138667 5.173333 0.128 10.410667-0.448 15.541333-0.714667 6.325333-2.005333 12.586667-3.178666 18.848-1.066667 5.674667-3.392 11.36-3.189334 16.96 0.288 7.925333-5.610667 13.898667-5.482666 21.333334 0.128 7.616-5.088 13.098667-6.762667 19.914666-0.789333 3.274667-1.301333 6.688-2.528 9.802667-2.229333 5.621333-4.938667 11.061333-7.370667 16.608-1.941333 4.426667-3.616 8.992-5.706666 13.354667-2.421333 5.034667-5.002667 10.005333-7.786667 14.848a799.466667 799.466667 0 0 1-14.176 23.808c-2.602667 4.192-5.984 7.925333-8.373333 12.213333-1.301333 2.325333-1.216 5.397333-1.877334 8.106667-0.128 0.544-0.917333 0.885333-1.184 1.429333-0.981333 1.984-1.856 4.010667-3.210666 5.098667-3.477333 2.805333-8.906667 5.013333-10.026667 8.565333-2.005333 6.410667-7.349333 8.842667-11.114667 13.098667-1.728 1.952-3.146667 4.192-4.896 6.133333-5.429333 6.058667-10.858667 12.021333-18.24 16.021333-3.008 1.642667-5.024 5.056-7.637333 7.509334-3.978667 3.722667-6.922667 8.469333-13.066667 9.866666-2.88 0.650667-5.909333 3.882667-7.413333 6.72-2.314667 4.384-6.229333 5.056-10.058667 6.570667l0.8 2.453333c-0.714667 0.16-1.173333 0.384-1.6 0.330667-0.618667-0.074667-1.514667-0.704-1.792-0.48-4.352 3.498667-9.749333 5.290667-13.952 9.205333-2.805333 2.613333-7.018667 3.712-10.613333 5.472-0.842667 0.416-1.813333 0.586667-2.602667 1.077334-6.741333 4.256-13.482667 8.512-20.170666 12.864-1.525333 0.992-2.816 2.346667-4.245334 3.04-6.794667 3.68-13.44 7.669333-20.426666 10.954666-6.698667 3.146667-13.738667 5.568-21.322667 8.576l-0.490667 2.357334-0.661333-1.408c-4.672 1.205333-9.546667 1.962667-13.941333 3.818666-2.261333 0.96-4.32 1.610667-6.709334 2.176-4.554667 1.066667-8.810667 3.456-13.216 5.258667-1.472 0.618667-3.125333 1.76-4.48 1.504-3.914667-0.725333-5.973333 1.024-7.36 4.64-5.152-5.013333-8.533333 1.12-12.672 2.058667-7.210667 1.664-13.952 5.792-21.184 6.794666-6.613333 0.906667-12.448 5.770667-19.530666 3.701334-0.298667-0.085333-0.757333-0.096-0.970667 0.064-5.418667 4.085333-11.690667 2.090667-17.632 2.592-4.992 0.405333-10.144-0.565333-14.933333 2.293333-1.984 1.173333-4.864 0.789333-7.306667 1.258667-1.290667 0.256-2.506667 0.906667-3.786667 1.237333-2.784 0.714667-5.578667 1.898667-8.373333 1.909333-5.109333 0.021333-10.229333-0.650667-15.338667-1.077333-0.469333-0.032-1.098667-0.629333-1.344-0.48-4.416 2.773333-9.034667 2.602667-13.824 1.258667-0.437333-0.117333-1.173333 0.853333-1.770666 1.312l-3.904 2.944c-0.704-3.562667-1.269333-5.12-4.810667-3.605334-3.029333 1.301333-6.688 1.194667-10.090667 1.546667-4 0.416-8.032 0.96-12.032 0.885333-4.48-0.085333-8.96-0.714667-13.408-1.290666-5.418667-0.693333-10.805333-1.568-16.202666-2.368-0.629333-0.096-1.621333-0.576-1.802667-0.352-3.466667 4.138667-4.938667 0.042667-6.88-0.469334-3.776 0.416-7.552 1.130667-11.328 1.141334a43.626667 43.626667 0 0 1-10.858667-1.184c-5.845333-1.482667-11.509333-3.690667-17.333333-5.258667-1.546667-0.426667-3.413333 0.330667-6.197333 0.672-7.84-2.336-17.12-5.12-26.432-7.776-0.298667-0.085333-0.992 1.205333-1.450667 1.802667-5.088-4.650667-11.850667-4.234667-18.090667-5.6-3.872-0.842667-7.594667-2.325333-11.349333-3.616a145.706667 145.706667 0 0 1-9.173333-3.445334c-4.512-1.856-8.906667-3.989333-13.450667-5.728-1.770667-0.672-3.829333-0.608-5.76-0.874666l0.362667-0.714667c-2.058667-0.938667-4.042667-2.144-6.197334-2.762667-7.104-2.069333-15.029333-1.888-20.405333-8.490666-1.493333-1.845333-4.181333-2.837333-6.474667-3.893334-4.181333-1.898667-8.32-4.277333-12.736-5.141333-6.933333-1.354667-9.952-7.797333-15.626666-10.624-3.242667-1.621333-6.496-3.221333-9.685334-4.928-6.677333-3.584-13.386667-7.093333-19.925333-10.901333-2.741333-1.589333-5.152-3.776-7.584-5.845334-3.466667-2.944-6.688-6.165333-10.24-8.981333-1.493333-1.173333-3.584-1.610667-6.549333-2.890667-1.568-1.717333-1.248-6.698667-6.794667-7.413333-1.354667-0.170667-1.941333-4.010667-3.541333-5.354667-1.066667-0.896-3.328-0.373333-5.205334-0.490666l2.037334-2.784c-1.162667-0.288-2.773333-0.202667-3.445334-0.949334-2.805333-3.093333-5.12-6.634667-8.010666-9.632-3.658667-3.786667-7.850667-7.04-11.541334-10.805333-2.933333-3.018667-6.453333-6.037333-7.968-9.76-4.490667-10.986667-12.490667-19.008-20.373333-27.370667-3.914667-4.16-6.773333-9.418667-9.653333-14.442666-1.333333-2.325333-1.397333-5.344-2.410667-7.904-0.298667-0.768-1.845333-1.056-3.221333-1.770667 1.344-5.194667-3.946667-7.552-6.485334-11.370667-2.08-3.114667-3.914667-5.952-4-10.272-0.106667-4.8-1.546667-10.24-4.256-14.112-3.456-4.928-3.562667-10.410667-5.269333-15.594666-0.458667-1.397333-1.536-2.581333-1.92-3.2l-6.485333-20.234667c3.914667-1.28 1.962667-4.245333 0.458666-7.232-1.589333-3.178667-4.650667-5.909333-2.261333-10.282667 0.554667-1.013333-1.984-3.413333-2.453333-5.333333-0.874667-3.562667-1.269333-7.253333-1.898667-11.136l-0.16 0.021333c0.085333-4.053333 0.266667-8.192 0.213333-12.341333-0.021333-2.421333 0.042667-5.013333-0.832-7.178667-0.426667-1.056-2.901333-1.28-4.810666-2.016 0.896-0.8 1.994667-1.685333 2.976-2.677333 1.92-1.952 2.965333-3.744 1.770666-6.933333-1.781333-4.725333-0.448-9.802667-0.16-14.762667 0.266667-4.490667-0.405333-9.045333-0.618666-13.578667a35.093333 35.093333 0 0 1 0.053333-3.818666c0.437333-6.709333-0.330667-13.824 1.728-20 1.653333-4.96-1.44-10.592 3.253333-15.093334 1.92-1.856 1.845333-5.973333 2.304-9.109333 0.565333-3.893333-0.416-8.533333 1.418667-11.541333 1.589333-2.602667 3.818667-4.341333 2.816-7.754667-0.416-1.418667-0.597333-2.922667-1.013333-5.013333l2.517333 0.768 7.232-30.058667c-0.928-1.866667-2.72-3.904-2.261333-4.928 0.8-1.792 2.976-2.986667 4.608-4.384 0.298667-0.266667 1.034667-0.309333 1.098666-0.565333 1.098667-4.416 5.44-7.317333 4.821334-12.885334-0.341333-3.029333 2.965333-6.442667 4.522666-9.717333 0.501333-1.045333 1.322667-2.698667 0.906667-3.285333-1.824-2.570667-1.258667-4.373333 1.034667-6.122667 0.618667-0.469333 1.536-1.610667 1.376-1.898667-2.592-4.416 1.482667-5.12 2.496-7.157333 0.917333-3.914667 1.589333-7.914667 2.837333-11.722667 1.344-4.149333 3.178667-8.138667 4.917333-12.138666 0.736-1.664 1.450667-3.573333 2.741334-4.736 7.882667-7.136 8.213333-17.941333 13.130666-26.517334 4.618667-8.074667 8.544-16.544 13.152-24.618666 2.4-4.213333 5.482667-8.085333 8.512-11.914667 4.426667-5.589333 8.693333-11.125333 10.752-18.218667 0.789333-2.698667 3.765333-4.704 5.493334-7.2 1.952-2.816 3.616-5.824 5.482666-8.864 0.512-0.224 2.421333-0.458667 2.688-1.258666 1.589333-4.693333 3.68-8.330667 8.650667-10.762667 2.912-1.44 4.448-5.76 6.506667-8.842667 1.834667-2.762667 3.36-5.738667 5.418666-8.309333 0.565333-0.693333 2.538667-0.245333 4.874667-0.384 5.098667-7.306667 10.656-15.701333 16.704-23.722667 2.389333-3.178667 5.877333-5.546667 8.821333-8.309333 1.12-1.034667 2.357333-2.037333 3.168-3.285333 3.253333-4.992 10.538667-6.026667 12.202667-12.512 5.354667-0.757333 6.101333-6.570667 9.92-9.013334 1.685333-1.077333 3.637333-1.898667 5.024-3.274666 1.290667-1.28 2.005333-3.146667 3.338667-5.376l4.16 2.656 7.114666-7.562667c2.133333-2.261333 4.010667-4.853333 6.464-6.688 2.325333-1.738667 5.237333-2.677333 7.850667-3.957333l-2.037333-1.269334 0.213333-1.450666 6.741333 0.693333c0.085333-1.621333-0.202667-3.850667 0.469334-5.749333 0.384-1.088 2.218667-1.845333 3.562666-2.368 2.261333-0.885333 4.842667-1.098667 6.933334-2.24 2.709333-1.482667 5.013333-3.701333 7.594666-5.429334 3.690667-2.464 7.328-5.045333 11.253334-7.061333 3.978667-2.037333 8.778667-2.741333 12.309333-5.301333 4.565333-3.306667 9.088-6.186667 14.549333-7.68 1.450667-0.394667 2.613333-1.834667 4.149334-2.986667l-1.450667-1.792c6.229333 3.264 9.504-0.362667 12.608-4.373333 1.237333 2.688 2.741333 2.453333 4.938667 1.024 1.770667-1.162667 3.914667-2.058667 5.994666-2.378667 3.722667-0.554667 5.557333-3.637333 8.341334-5.28 2.773333-1.642667 6.538667-1.632 9.877333-2.272 0.32-0.064 0.949333 0.672 1.066667 0.576 4.853333-3.893333 10.229333-2.464 15.605333-1.706667 3.477333 0.490667 6.421333-1.130667 9.536-2.677333 2.325333-1.173333 5.610667-0.234667 8.298667-0.917333 2.965333-0.757333 5.653333-2.698667 8.618666-3.402667 3.093333-0.736 6.4-0.490667 9.578667-0.896 1.76-0.224 3.456-0.896 5.365333-1.418667l0.256 2.592c6.848-0.245333 13.621333-0.501333 20.394667-0.714666 2.304-0.074667 4.618667-0.16 6.912-0.032 3.189333 0.181333 6.421333 1.098667 9.514667 0.725333 5.525333-0.672 10.976-1.952 16.416-3.210667 3.562667-0.821333 6.976-2.4 10.570666-3.029333 6.165333-1.077333 12.405333-1.546667 18.688-0.618667 1.162667 0.181333 2.506667-1.344 3.776-1.354666 1.706667-0.021333 3.402667 0.832 5.130667 1.002666 3.626667 0.362667 7.285333 0.533333 11.061333 0.8l-0.565333-1.013333c6.069333 0.522667 12.064 0.832 17.994667 1.674667 1.877333 0.266667 3.456 2.421333 5.354666 2.816 1.738667 0.362667 3.722667-0.490667 5.525334-1.354667 5.12 2.432 12 3.349333 13.92 1.877333 3.925333 1.386667 7.264 2.773333 10.730666 3.744 5.792 1.642667 11.605333 3.264 17.504 4.426667 2.88 0.586667 5.397333 2.56 8.928 1.482667 1.6-0.490667 4.138667 2.08 6.24 3.306666 0.256 0.149333 0.330667 0.672 0.586667 0.746667 4.064 1.290667 8.16 2.474667 12.202667 3.797333 3.189333 1.056 6.272 2.453333 9.493333 3.338667 2.997333 0.832 6.176 0.981333 9.141333 1.845333a8.085333 8.085333 0 0 1 4.16 2.826667c3.317333 4.917333 7.872 6.869333 13.632 7.349333 5.173333 0.437333 10.144 1.856 13.984 5.930667 0.853333 0.906667 2.613333 0.938667 2.794667 0.992 4.330667 2.005333 7.530667 3.104 10.304 4.864 3.818667 2.410667 7.264 5.418667 10.976 8 5.418667 3.765333 10.912 7.413333 16.405333 11.050667 2.464 1.621333 5.077333 3.04 7.541334 4.682666 3.402667 2.24 6.794667 4.512 10.026666 6.976 1.76 1.333333 3.210667 3.082667 4.757334 4.682667 2.005333 2.090667 2.848 5.450667 6.752 5.536 0.778667 0.021333 1.504 2.357333 2.72 2.698667 2.997333 1.994667 6.218667 3.744 8.938666 6.08 2.037333 1.749333 3.072 4.714667 5.173334 6.325333 4.608 3.509333 7.84 8.928 14.090666 10.218667 0.768 0.16 2.026667 1.621333 1.930667 1.770666-2.058667 3.264 1.066667 5.109333 2.421333 6.592 5.098667 5.504 7.648 13.056 15.264 16.736 3.744 1.813333 7.253333 6.517333 8.437334 10.624 1.525333 5.322667 6.816 6.282667 8.992 10.517334 1.589333 3.093333 6.016 5.504 6.154666 8.362666 0.192 4.266667 4.704 4.362667 5.098667 7.637334l1.664-0.224c0.757333 1.877333 1.152 4.064 2.357333 5.610666 2.933333 3.744 6.805333 6.848 9.290667 10.837334 4.181333 6.688 7.285333 14.037333 11.381333 20.768 4.992 8.224 10.570667 16.074667 15.84 24.138666 1.205333 1.856 2.336 3.808 3.157334 5.856 0.736 1.824 0.853333 3.882667 1.504 5.76 2.858667 8.128 5.664 16.288 8.768 24.330667 1.6 4.149333 4.010667 7.776 3.541333 12.768-0.256 2.570667 2.453333 5.376 3.605333 8.170667 1.824 4.448 4.298667 8.864 4.938667 13.514666 0.576 4.309333 1.984 7.648 4.832 10.634667 0.234667 0.234667 0.576 0.512 0.597333 0.789333 0.234667 3.477333 0.928 7.029333 0.512 10.453334-0.629333 5.312 3.157333 19.893333 6.421334 22.325333-2.432 4.202667-2.133333 7.722667 0.469333 12.288 1.973333 3.477333 0.725333 8.746667 1.109333 13.194667 0.096 1.162667 0.970667 2.272 1.461334 3.413333 0.533333 1.248 1.397333 2.485333 1.472 3.765333 0.405333 6.848 0.469333 13.717333 0.928 20.554667 0.362667 5.312 1.749333 10.624 1.525333 15.893333-0.245333 6.133333-2.24 12.181333-2.56 18.314667-0.298667 5.472 0.874667 11.018667 1.013333 16.544z m43.658667-37.632c0.501333-0.853333 2.218667-2.432 2.144-3.936a463.189333 463.189333 0 0 0-2.005333-24.576c-0.362667-3.648-1.290667-7.253333-1.802667-10.901333-0.266667-1.92-0.213333-3.882667-0.298667-5.824-0.789333-4.394667-1.12-8.629333-1.888-12.778667-0.682667-3.690667-2.133333-7.242667-2.730666-10.933333-1.034667-6.357333-1.664-12.789333-2.464-19.2-0.64-5.077333-1.184-10.165333-1.984-15.221334-0.16-0.949333-1.322667-1.738667-2.016-2.602666-0.757333-0.736-0.341333-2.208-0.629334-3.530667a241.002667 241.002667 0 0 0-4.181333-16.672c-1.536-5.109333-3.573333-10.069333-5.493333-15.424l-1.226667 0.234667c-0.554667-4.277333-0.469333-8.501333-1.749333-12.256a32.714667 32.714667 0 0 0-6.186667-10.752c-2.005333-2.293333-3.146667-3.754667-1.130667-6.272-4.629333-1.077333-2.165333-5.397333-3.541333-7.530667-3.210667-5.002667-2.613333-12.490667-9.536-15.178667-0.576-0.224-0.618667-1.898667-0.864-2.922666-0.352-1.536-0.416-3.189333-1.034667-4.618667-0.96-2.229333-2.368-4.256-3.424-6.464-3.530667-7.381333-6.912-14.837333-10.496-22.208a85.088 85.088 0 0 0-5.685333-10.261333c-1.045333-1.557333-3.498667-2.186667-4.501333-3.754667-2.346667-3.669333-3.946667-7.84-6.346667-11.477333-1.578667-2.389333-4.010667-4.213333-6.421333-6.656 2.421333-4.778667-3.018667-6.912-5.045334-10.485334-2.133333-3.786667-4.586667-7.392-6.933333-11.050666-1.472-2.293333-2.528-5.194667-4.586667-6.688a34.88 34.88 0 0 1-10.912-13.216 16.981333 16.981333 0 0 0-2.005333-3.178667c-3.050667-3.797333-5.994667-7.712-9.312-11.253333-3.232-3.434667-7.285333-6.133333-10.208-9.770667-2.154667-2.677333-1.610667-7.52-6.752-7.797333-0.618667-0.042667-1.056-1.706667-1.76-1.898667-1.376-0.384-2.890667-0.245333-3.712-0.288-0.96-2.197333-1.418667-4.16-2.581333-5.536-0.874667-1.045333-2.933333-1.002667-4-1.973333-5.002667-4.533333-9.632-9.493333-14.816-13.792-2.634667-2.176-4.533333-3.978667-2.72-7.306667l-6.346667 1.557333 1.6-2.730666c-2.890667-2.112-6.528-3.466667-7.765333-5.984-1.802667-3.669333-3.701333-3.904-5.333334-3.2-1.792-1.472-2.389333-2.389333-3.114666-2.485334-5.013333-0.693333-8.821333-3.061333-11.882667-7.146666-1.482667-1.984-3.712-3.488-5.824-4.874667-5.013333-3.285333-12.202667-4.181333-12.522667-12.416l-4.405333 1.216c0.298667-5.376-4.554667-5.525333-6.901333-5.152-6.378667 1.024-7.328-7.765333-13.322667-6.538667-0.010667 0-0.042667-0.682667-0.234667-0.885333-0.832-0.842667-1.621333-1.877333-2.645333-2.389333a45.76 45.76 0 0 0-6.112-2.410667c-3.52-1.152-5.504-5.184-10.090667-4.736-1.824 0.181333-3.872-2.08-5.834666-3.2-1.76-1.002667-3.541333-1.962667-5.312-2.944l-0.970667 1.109333a433.525333 433.525333 0 0 1-1.056-3.061333l-13.376-4.213333c-0.341333-0.48-1.354667-2.538667-1.856-2.421334-2.368 0.544-4.597333 1.685333-5.674667 2.122667-4.128-2.592-7.690667-5.408-11.701333-7.210667-5.44-2.453333-11.2-4.202667-16.864-6.08-1.76-0.586667-3.701333-0.672-5.557333-0.949333-3.008-0.458667-6.848 0.128-8.842667-1.525333-4.437333-3.68-8.821333-6.208-14.762667-6.197334-4.106667 0.010667-8.224-0.885333-12.330666-1.376-5.493333-0.661333-10.986667-1.290667-16.469334-1.994666-0.362667-0.053333-0.565333-0.885333-0.96-1.045334-3.274667-1.322667-6.485333-3.018667-9.898666-3.690666-1.866667-0.373333-4.042667 1.184-6.144 1.557333-3.978667 0.704-7.946667 1.248-11.349334-2.016-0.650667-0.629333-2.176-0.490667-3.285333-0.469333-5.397333 0.117333-11.445333 1.952-16.053333 0.128-9.173333-3.626667-17.856 2.485333-27.424-1.397334l2.048 5.461334-2.698667 0.224c-0.597333-1.557333-0.885333-3.52-1.44-3.594667-4.512-0.629333-9.077333-0.896-13.546667-1.258667l0.213334 3.968c-1.205333-0.618667-2.144-1.546667-3.018667-1.504-6.634667 0.384-13.472 0.042667-19.786667 1.696-7.573333 1.973333-8.586667 2.56-15.456 1.333334-3.68-0.661333-7.584-0.117333-11.434666-0.117334l0.746666 2.197334c-2.442667 0.362667-5.28-0.042667-6.24 1.109333-2.4 2.890667-4.650667 3.210667-7.754666 0.96-2.741333 5.493333-6.016 4.725333-10.144 1.824-3.029333-2.133333-6.538667-2.048-8.106667-0.042667-2.357333 0-3.68-0.234667-4.885333 0.053334-1.92 0.437333-3.722667 1.589333-5.642667 1.770666-2.666667 0.266667-5.482667-0.554667-8.074667-0.085333-4.32 0.789333-8.085333 3.381333-12.864 3.178667-3.402667-0.149333-6.976 1.002667-10.261333 2.165333-3.232 1.152-6.197333 3.061333-9.994667 4.992-2.741333-1.44-16.106667 3.381333-19.392 8.256-3.925333-5.450667-8.064-0.448-10.133333 1.173333-4.725333 3.733333-9.642667 4.693333-15.189333 5.194667-6.293333 0.565333-8.757333 3.136-8.8 8.266667l-2.826667-3.381334c-0.384 1.258667-0.384 2.602667-0.949333 2.922667-4.778667 2.656-9.642667 5.130667-14.496 7.637333-1.429333 0.725333-3.050667 1.152-4.352 2.058667-6.090667 4.245333-12.106667 8.586667-18.112 12.938667-2.464 1.792-4.8 3.744-7.221334 5.589333-2.528 1.930667-5.216 3.669333-7.594666 5.770667-1.621333 1.429333-2.826667 3.328-4.64 5.514666-2.890667-0.256-6.613333-0.170667-7.488 5.088-0.064 0.426667-1.450667 0.682667-2.24 0.949334-3.573333 1.205333-7.84 1.237333-9.28 5.898666-0.181333 0.586667-1.248 0.917333-1.930667 1.322667-2.634667 1.578667-5.493333 2.88-7.872 4.789333-2.037333 1.642667-3.68 3.861333-5.226667 6.016-4.352 6.058667-12.778667 7.872-15.829333 15.392-0.490667 1.205333-3.936 2.144-3.808 2.538667 1.546667 5.130667-3.189333 4.394667-5.322667 6.016-1.12 0.853333-3.402667 2.08-3.285333 2.357333 1.728 4.181333-3.2 4.341333-4.010667 6.901334-0.213333 0.661333-1.493333 1.130667-1.493333 1.696-0.032 5.877333-6.325333 6.538667-8.874667 10.474666-1.130667 1.749333-4.010667 2.730667-5.12 5.44-0.789333 1.909333-2.581333 3.477333-4.16 4.938667-3.264 2.997333-6.698667 5.813333-9.994666 8.768-0.298667 0.266667-0.384 1.386667-0.149334 1.568 2.613333 2.005333 0.053333 2.517333-0.938666 3.488-4.704 4.554667-10.133333 8.032-14.272 13.632-3.968 5.386667-7.648 10.090667-7.626667 17.461333l-5.056-1.376c0.106667 0.992 0.053333 2.08 0.362667 3.050667 1.077333 3.306667-2.709333 2.506667-3.370667 4.064-2.346667 5.6-3.968 11.530667-9.408 15.274667-1.813333 1.248-4.714667 3.36-4.512 4.661333 0.981333 6.133333-6.634667 6.709333-7.050667 12.565333-0.330667 4.608-4.864 8.853333-7.178666 13.429334-2.005333 3.989333-3.338667 8.309333-5.290667 12.32-1.130667 2.314667-2.901333 4.330667-4.384 6.474666l1.077333 0.896-1.973333-0.266666c-1.301333 3.52-1.674667 7.786667-3.989333 10.037333-3.36 3.274667-5.162667 7.317333-7.594667 10.997333-2.314667 3.488-3.882667 7.498667-5.461333 11.413334-1.216 3.018667-0.789333 6.805333-4.330667 8.661333 2.005333 5.653333-2.741333 9.632-4.586667 13.845333-1.813333 4.138667-3.52 7.338667-1.824 11.669334 0.064 0.170667-0.256 0.501333-0.426666 0.789333a424.853333 424.853333 0 0 0-2.901334-1.557333l1.013334 7.125333-1.301334-0.565333c-4.512 7.04-6.538667 15.210667-8.576 23.285333-0.448 1.781333 0.458667 3.914667 0.789334 6.229333-1.269333 0.864-3.552 2.026667-5.237334 3.765334-0.757333 0.778667-0.042667 3.84-0.469333 3.946666-2.773333 0.682667-1.482667 2.944-2.122667 4.394667-0.821333 1.888-1.813333 3.712-2.954666 5.994667 1.866667 3.712-1.717333 16.277333-5.653334 18.293333 1.834667 7.317333-4.384 15.104 2.709334 22.336l-5.024-0.512c0 1.429333 0.362667 3.253333-0.053334 3.445333-3.082667 1.450667-1.941333 3.093333-0.714666 5.109334 0.48 0.8 0.309333 2.133333 0.16 3.168-0.757333 5.024-1.493333 10.037333-2.485334 15.008-0.352 1.792-1.322667 3.477333-2.090666 5.173333-0.384 0.842667-1.333333 1.6-1.333334 2.4-0.010667 5.461333 0.565333 10.965333 0.117334 16.384-0.288 3.477333-2.016 6.837333-3.093334 10.250667L32 556.277333l1.92 3.84c-0.682667 1.493333-2.016 2.997333-1.877333 4.352 0.714667 6.613333 1.973333 13.173333 2.72 19.797334 0.426667 3.765333 0.789333 7.701333 0.224 11.402666-1.141333 7.349333-2.101333 14.656-1.130667 22.069334 0.149333 1.162667 0.746667 2.826667 1.621333 3.253333 4.821333 2.325333 1.141333 3.744-0.192 5.162667 0.608 2.24 1.941333 4.426667 1.578667 6.293333-1.12 5.877333 0.362667 11.072 2.741333 16.277333 0.896 1.952 1.546667 4.128 1.792 6.261334 0.426667 3.562667-0.725333 7.808 0.842667 10.624 3.861333 6.954667 5.994667 14.368 8.149333 21.856 0.874667 3.050667 1.802667 6.101333 2.4 9.205333 0.16 0.832-0.810667 1.888-1.365333 3.072l3.2-0.992c0.170667 2.144 1.056 4.341333 0.330667 5.632-2.922667 5.248 1.557333 4.810667 3.989333 6.538667 0.170667 1.034667 0.149333 2.314667 0.618667 3.370666 1.12 2.592 2.517333 5.056 3.701333 7.616 0.597333 1.28 1.098667 2.613333 1.429333 3.978667 1.034667 4.32 5.504 7.093333 4.554667 12.693333-0.384 2.304 0.010667 8.554667 6.346667 7.68-2.272 3.349333 0.821333 4.512 2.112 6.346667 1.92 2.709333 4.224 5.269333 5.546666 8.245333 1.152 2.56 0.32 6.197333 1.813334 8.362667 5.386667 7.797333 11.36 15.189333 17.173333 22.698667 1.386667 1.792 3.562667 3.168 4.394667 5.162666 3.274667 7.904 7.893333 14.474667 15.626666 18.645334 1.109333 0.597333 1.578667 2.378667 2.336 3.616l3.786667 6.250666c1.12 6.048 6.624 8.714667 10.656 12.32 3.658667 3.274667 9.578667 5.386667 11.136 9.344 2.592 6.570667 7.082667 10.026667 12.501333 13.312 2.965333 1.802667 5.834667 3.808 8.544 5.984 4.416 3.541333 8.565333 7.424 13.045334 10.890667 1.632 1.258667 4.042667 1.450667 5.792 2.602667 6.592 4.288 12.928 8.992 19.616 13.12 5.269333 3.264 10.954667 5.856 16.384 8.874666 3.285333 1.834667 6.4 3.989333 9.674666 5.866667 2.421333 1.386667 5.130667 2.304 7.424 3.850667 3.605333 2.421333 6.965333 5.194667 10.432 7.797333 0.245333 0.192 0.821333 0.330667 0.938667 0.213333 2.784-2.986667 4.501333 0.490667 6.4 1.290667 5.450667 2.293333 9.909333 7.061333 16.533333 6.336 0.448-0.042667 0.96 0.181333 1.397334 0.352 5.024 1.962667 8.170667 8 15.018666 6.282667 2.282667-0.565333 5.098667 1.045333 7.722667 1.674666l-1.728 2.176c4.213333 2.272 8.032 4.394667 11.925333 6.389334 0.949333 0.490667 2.122667 0.586667 3.2 0.8 5.141333 0.992 10.709333 1.034667 15.349334 3.125333 10.005333 4.512 20.245333 8.138667 31.061333 9.301333 4.554667 0.48 9.674667 3.882667 13.258667 0.32 3.605333 1.493333 6.624 3.232 9.856 3.968 7.082667 1.632 14.304 2.634667 21.418666 4.16 1.365333 0.298667 2.581333 2.741333 3.701334 2.613334 5.856-0.629333 11.701333 3.093333 17.568-0.032 0.992-0.533333 2.474667-0.192 3.722666-0.170667 2.688 0.042667 5.365333 0.192 8.053334 0.16 0.736-0.010667 1.909333-0.949333 2.133333-0.725333 5.962667 6.122667 14.218667 2.976 21.205333 5.098666 5.365333 1.621333 11.594667 0.352 17.44 0.32 0.128 0 0.245333-0.576 0.437334-1.045333l-3.669334-2.858667 5.184 1.450667 0.458667 3.690667c1.888-0.821333 2.538667-4.842667 4.96-1.002667 0.64 1.013333 3.466667 0.810667 5.290667 0.896 6.549333 0.309333 12.928-1.92 19.616-0.896 2.805333 0.426667 6.133333-0.586667 9.002666-0.96 3.328-0.437333 5.792-1.226667 8.245334-3.498667l2.944 3.264c1.162667-0.672 2.250667-1.845333 3.114666-1.706666 6.101333 1.013333 11.936-1.056 17.92-1.354667 1.824-0.096 3.584-1.664 5.333334-2.538667 1.642667 0.661333 3.936 2.549333 5.738666 2.154667 5.312-1.152 10.346667-3.466667 15.637334-4.821333 3.232-0.832 6.709333-0.917333 10.090666-1.002667 3.754667-0.096 7.530667 0.330667 11.296 0.277333 3.808-0.053333 7.616-0.394667 11.424-0.618666 3.008-0.650667 5.909333-2.624 9.077334-4a107.306667 107.306667 0 0 1 12.544-4.533334c6.72-1.984 13.621333-2.026667 20.565333-4.96 7.178667-3.029333 14.069333-9.770667 23.264-7.434666 0.405333 0.096 1.098667-1.045333 1.706667-1.546667 0.661333-0.544 1.301333-1.258667 2.069333-1.493333 4.298667-1.269333 8.714667-2.176 12.928-3.658667 5.109333-1.813333 10.037333-4.138667 15.082667-6.122667 2.314667-0.906667 4.725333-1.525333 6.197333-2.005333l-4.096-4.682667c2.442667-1.632 4.405333-3.957333 5.717333-3.626666 2.485333 0.608 4.586667 2.752 7.744 4.864l39.456-19.168-2.304 3.786666c5.098667-3.530667 8.341333-9.642667 15.882667-8.469333 0.917333 0.149333 2.336-2.997333 3.552-4.597333 1.269333-1.653333 2.250667-3.989333 3.936-4.746667 3.178667-1.418667 7.093333-1.077333 9.386667-4.650667 0.309333-0.48 2.709333 0.384 5.034666 0.768 2.058667-2.549333 4.416-5.6 6.933334-8.512 0.576-0.682667 1.76-1.418667 2.517333-1.28 5.024 0.864 6.496-3.466667 9.141333-6.026666 3.242667-3.136 6.165333-6.656 9.653334-9.461334 3.370667-2.709333 7.381333-4.608 10.954666-7.093333 1.397333-0.970667 2.208-3.477333 3.573334-3.733333 7.882667-1.472 10.634667-9.056 16.266666-13.173334 5.706667-4.170667 11.072-8.832 16.458667-13.429333 2.24-1.909333 4.469333-3.989333 6.112-6.410667 3.413333-5.056 5.6-10.986667 12.042667-13.504 1.898667-0.746667 4.768-3.978667 4.437333-4.64-2.101333-4.053333 2.304-3.904 3.402667-5.642666 1.162667-1.845333 3.530667-3.093333 5.6-4.16 3.765333-1.962667-1.098667-8.501333 4.970666-9.045334 5.098667-9.056 10.208-18.101333 15.296-27.168 0.96-1.696 1.642667-3.573333 2.805334-5.12 1.536-2.058667 3.690667-3.690667 5.077333-5.834666 3.573333-5.461333 7.466667-10.837333 10.133333-16.746667 2.762667-6.144 8.277333-10.368 9.504-17.909333 1.237333-7.637333 6.037333-14.698667 9.312-21.994667 0.608-1.354667 2.154667-3.648 1.973334-3.776-2.944-2.197333-0.714667-3.552 0.512-5.301333 1.301333-1.856 2.517333-3.861333 3.242666-5.984 1.557333-4.554667 0.213333-10.101333 5.162667-13.536 1.013333-0.704 0.981333-3.018667 1.258667-4.618667 0.938667-5.44 1.504-10.954667 2.805333-16.298667 0.874667-3.552 3.424-6.741333 4.074667-10.304 0.906667-5.034667 0.746667-10.272 1.056-15.52h-1.941334c0.725333-1.696 1.610667-3.082667 1.930667-4.608 0.8-3.84 1.504-7.733333 1.962667-11.626666a764.586667 764.586667 0 0 0 2.272-22.549334c0.544-6.421333 0.896-12.853333 1.333333-19.306666l-0.512-0.053334v-29.653333zM566.442667 718.965333c-3.093333 3.178667-6.229333 6.421333-9.770667 9.066667-2.837333 2.133333-6.293333 3.466667-9.557333 4.992-0.213333 0.096-1.066667-1.216-1.92-2.208-5.077333 7.274667-12.842667 5.333333-19.946667 5.856a5.269333 5.269333 0 0 0-2.005333 0.672c-0.992 0.501333-2.08 1.749333-2.88 1.578667-4.128-0.874667-8.32-1.781333-12.266667-3.306667-4.768-1.834667-9.088-5.205333-13.941333-6.293333-6.752-1.493333-9.024-7.658667-13.770667-11.136-2.517333-1.834667-2.869333-5.568-6.72-7.061334-2.826667-1.088-4.544-5.077333-6.826667-7.850666 3.754667-1.077333 2.165333-3.754667 1.141334-6.72-1.013333-2.890667-1.290667-6.037333-1.834667-8.8 0.928-1.44 3.072-3.210667 3.04-4.906667-0.288-9.546667 3.52-17.386667 9.344-24.458667 2.208-2.688 4.992-4.906667 7.253333-7.552 0.928-1.088 1.152-2.773333 1.450667-3.552 5.6 0.362667 7.786667-5.408 12.554667-6.666666l2.645333 3.018666c-0.053333-0.501333-0.085333-1.002667-0.117333-1.504 3.626667-0.746667 7.253333-1.472 10.901333-2.208 2.602667-0.533333 5.184-1.333333 7.818667-1.504 3.893333-0.256 7.893333 0.426667 11.722666-0.138666 9.866667-1.472 17.493333 1.450667 22.677334 11.232l1.290666-2.666667c4.138667 3.093333 8.458667 5.685333 11.914667 9.152 2.304 2.304 4.693333 5.045333 5.066667 8.853333 0.16 1.674667 1.568 3.2 2.24 4.853334 2.272 5.525333 1.834667 11.552 3.168 17.258666 3.178667 13.546667-4 23.125333-12.672 32z m58.24-49.077333c-0.021333-4.693333-1.92-9.397333-3.264-14.026667-0.778667-2.698667-2.069333-5.269333-3.221334-7.850666-0.426667-0.96-1.162667-1.792-1.770666-2.677334-2.272-3.338667-4.32-6.869333-6.976-9.888-0.896-1.024-3.296-0.725333-5.066667-1.045333 0.117333-7.594667-2.026667-13.610667-12.117333-14.4l4.309333-1.216 0.533333-1.578667c-3.690667-2.069333-7.466667-4-11.04-6.250666-3.52-2.218667-6.581333-5.333333-10.325333-6.986667-4.373333-1.930667-9.28-2.602667-13.898667-3.989333-8.96-2.677333-17.770667-6.112-26.901333-7.978667-6.058667-1.237333-12.661333-5.269333-18.912 0.128-0.565333 0.490667-1.632 0.853333-2.293333 0.693333-4.906667-1.312-10.154667 1.653333-14.197334 0.586667-6.581333-1.749333-10.72 2.773333-16.106666 3.648-4.864 0.8-9.738667 3.776-13.738667 6.901333-3.733333 2.901333-7.722667 4.768-11.882667 6.752-2.912 1.386667-6.229333 2.965333-7.061333 6.986667-0.277333 1.365333-1.632 2.613333-2.709333 3.701333-3.413333 3.445333-7.370667 6.442667-10.24 10.282667-1.973333 2.666667-1.674667 7.114667-3.786667 9.578667-5.482667 6.378667-8.277333 13.930667-10.944 21.6-1.141333 3.306667-1.856 6.773333-2.688 10.197333-0.373333 1.589333-0.533333 3.232-0.8 4.853333l-0.736-0.117333 1.653333 15.36c2.314667 8.554667 4.714667 17.525333 7.146667 26.56-0.053333 0.266667-0.544 1.269333-0.245333 1.888 1.226667 2.485333 2.592 4.938667 4.117333 7.253333 3.733333 5.674667 7.946667 11.050667 11.264 16.938667 4.768 8.469333 11.776 14.4 19.84 19.616l-1.066667 1.226667c2.752 1.066667 5.493333 2.112 8.245334 3.189333 6.154667 2.410667 12.202667 5.088 18.453333 7.168 4.405333 1.461333 9.344 3.466667 13.557333 2.688 3.072-0.554667 5.056 0.266667 6.485334 1.525333 2.965333 2.624 4.789333 2.016 6.346666-1.002666 1.493333 1.418667 2.549333 3.2 4 3.626666 7.594667 2.304 15.2 3.168 22.645334-0.832 3.210667-1.728 6.538667-3.477333 10.026666-4.394666 4.8-1.258667 9.898667-1.333333 14.645334-2.666667 3.477333-0.970667 6.741333-2.922667 9.834666-4.853333a92.16 92.16 0 0 0 11.349334-8.106667c4.629333-3.978667 8.853333-8.437333 13.290666-12.64 1.472-1.365333 3.082667-2.570667 4.629334-3.850667a8.085333 8.085333 0 0 0-0.373334-0.266666l7.338667-7.818667c0.053333-0.544-0.341333-2.496 0.426667-3.712 2.645333-4.192 8.597333-6.506667 7.2-13.024-0.106667-0.533333 0.778667-1.632 1.44-1.888 2.88-1.130667 3.968-2.613333 1.877333-5.450667-0.32-0.458667-0.213333-1.738667 0.192-2.176 2.122667-2.261333 2.666667-4.330667 0.426667-6.944-0.490667-0.565333 0.373333-2.293333 0.618666-3.488 0.245333-1.226667 0.768-2.474667 0.714667-3.701333-0.106667-3.808-0.426667-7.626667-0.672-11.434667 0-0.138667 0.16-0.288 0.213333-0.448 1.781333-5.376 0.266667-10.858667 0.213334-16.245333zM762.773333 279.968c2.144 2.858667 4.416 5.632 6.346667 8.618667 4.277333 6.592 1.568 13.066667-0.352 19.669333-0.821333 2.837333-1.386667 5.301333-4.48 6.506667-0.405333 0.16-0.064 2.24-0.064 3.509333-1.045333 0.832-2.496 1.952-3.893333 3.114667-2.336 1.941333-4.64 3.925333-6.976 5.866666-0.373333 0.309333-1.226667 0.416-1.269334 0.714667-1.322667 8.266667-12.138667 6.976-14.378666 14.282667-5.44 0.906667-5.301333 7.381333-10.4 9.568 3.690667 4.629333 7.338667 8.672 10.346666 13.141333 2.464 3.68 3.808 8.106667 6.293334 11.754667 3.136 4.608 6.933333 8.778667 10.453333 13.109333 0.512 0.64 1.685333 1.237333 1.632 1.781333-0.288 3.616 2.624 5.834667 3.573333 8.789334 1.418667 4.394667 0.181333 8.106667-3.242666 12-2.912 3.328-4.672 7.413333-9.056 9.664-4.245333 2.176-7.978667 2.954667-13.056 2.816-7.04-0.181333-9.909333-3.904-13.216-8.384-0.074667-0.106667-0.298667-0.117333-0.597334-0.234667l-2.730666 2.496 0.992-1.205333c-2.517333-1.834667-5.077333-3.626667-7.509334-5.578667-0.586667-0.469333-0.661333-1.546667-1.045333-2.304-0.608-1.248-1.28-2.464-1.92-3.690667l-2.730667 2.496c-1.472-2.666667-3.221333-5.429333-4.544-8.384a48.853333 48.853333 0 0 1-3.274666-9.290666c-1.066667-4.885333-5.962667-4.010667-7.957334-5.930667-3.232 1.824-6.165333 3.285333-8.874666 5.098667-1.28 0.864-2.154667 2.368-3.178667 3.605333-3.904 4.693333-7.744 9.429333-11.68 14.08-2.336 2.752-5.610667 5.024-7.04 8.16-2.549333 5.546667-7.776 7.317333-12.181333 10.186667-2.933333 1.909333-6.4 3.018667-9.696 4.341333-5.952 2.378667-9.674667-2.272-13.994667-4.746667-7.36-4.245333-11.552-10.272-9.493333-19.242666 0.48-2.133333 0.682667-4.458667 1.706666-6.304 3.456-6.154667 7.253333-12.138667 10.88-18.197334 0.906667-1.536 1.6-3.232 2.645334-4.650666 0.832-1.098667 2.026667-1.930667 3.146666-2.784 0.853333-0.650667 2.474667-0.992 2.624-1.717334 1.184-5.408 5.909333-6.976 9.813334-9.450666 0.128-0.074667 0.437333 0 0.469333-0.074667 0.970667-2.688 2.218667-3.829333 5.653333-4.405333 2.901333-0.501333 5.28-4.789333 7.637334-7.605334 1.258667-1.482667 2.528-3.328 2.773333-5.152 0.192-1.408-0.138667-2.954667-2.346667-4.416-3.434667-2.282667-7.776-5.002667-7.701333-10.474666 0.010667-0.746667-1.408-1.472-2.069333-2.282667-2.24-2.709333-5.642667-4.277333-5.653334-8.96-0.021333-2.421333-3.477333-4.746667-5.152-7.264-0.992-1.482667-1.536-3.264-2.4-5.152-10.389333-7.317333-6.816-17.194667-3.178666-27.242667l3.413333-1.056c-0.522667-0.992-1.493333-2.133333-1.258667-2.517333 2.954667-4.682667 7.808-7.466667 12.778667-7.850667 4.693333-0.373333 9.898667 1.184 14.293333 3.178667 3.904 1.781333 6.997333 5.333333 10.474667 8.064 1.706667 1.322667 3.466667 2.549333 4.405333 4.074667 0.789333 1.493333 1.642667 2.954667 2.357334 4.48 0.8 1.728 1.472 3.52 2.581333 6.229333l4.864 4.608-6.933333 0.906667c2.24 1.642667 3.52 3.210667 5.013333 3.445333 0.928 0.149333 2.176-1.749333 4.117333-3.456 2.4 3.328 5.12 6.997333 7.722667 10.741333 2.24 3.2 7.797333 1.802667 10.378667-2.389333 1.301333-2.090667 3.178667-3.84 4.8-5.749333l1.024 0.928c0.32-1.418667 0.192-3.562667 1.066666-4.138667 5.034667-3.242667 7.690667-9.546667 12.458667-11.936 4.650667-2.304 7.573333-7.466667 13.568-7.68 3.072-0.117333 6.101333-2.154667 9.088-3.456 5.845333-2.538667 10.517333-1.493333 14.133333 3.328zM422.805333 404.16c1.141333 4-0.853333 7.2-3.648 10.026667-0.810667 0.8-0.992 2.197333-1.632 3.221333-3.381333 5.354667-8.32 8.394667-14.453333 9.706667-0.917333 0.181333-1.76 0.725333-2.133333 0.885333-6.378667-2.378667-15.157333-0.469333-16.512-10.752l-4.117334 3.776c-0.810667-1.173333-1.354667-2.346667-2.24-3.178667-2.538667-2.378667-5.92-4.096-5.770666-8.394666 0.021333-0.490667-1.344-1.034667-2.058667-1.546667l-2.165333 3.392c-0.138667-1.269333-0.021333-2.197333-0.362667-2.88-2.037333-4.128-4.938667-8-6.101333-12.341333-1.514667-5.642667-4.736-8.533333-8.810667-9.226667-3.52 1.984-6.368 3.36-8.96 5.130667-1.386667 0.96-2.357333 2.56-3.477333 3.872-3.946667 4.661333-7.84 9.344-11.808 13.973333-2.250667 2.624-5.461333 4.810667-6.698667 7.829333-2.218667 5.365333-7.114667 7.125333-11.221333 9.866667-3.168 2.133333-6.954667 3.381333-10.56 4.810667-5.877333 2.325333-9.781333-1.92-14.026667-4.618667-6.997333-4.426667-11.914667-10.058667-9.6-19.2 0.458667-1.802667 0.586667-3.754667 1.418667-5.354667 1.984-3.829333 4.32-7.466667 6.464-11.2 2.474667-4.352 4.832-8.778667 7.402666-13.077333 0.629333-1.034667 1.898667-1.674667 2.858667-2.528 1.066667-0.96 2.208-1.877333 3.178667-2.944 1.034667-1.152 1.749333-2.602667 2.858666-3.658667 2.922667-2.762667 5.589333-6.474667 9.109334-7.744 3.125333-1.12 5.28-3.04 7.541333-4.885333 3.808-3.093333 8.021333-6.293333 5.408-11.648-1.568-2.048-2.709333-5.098667-4.768-5.962667-5.546667-2.293333-4.053333-9.973333-9.792-11.861333-0.778667-0.256-1.568-1.834667-1.568-2.816-0.032-4.896-3.626667-7.509333-6.325333-10.773333-0.928-1.141333-1.12-2.88-1.728-4.586667-10.144-7.2-7.434667-16.928-2.88-27.36l2.346666-0.693333c0.149333-1.429333-0.128-2.826667 0.448-3.584 3.872-5.077333 8.842667-8.245333 15.445334-6.496 5.44 1.450667 10.869333 3.2 15.968 5.546666 2.272 1.034667 3.584 3.989333 5.589333 5.792 1.354667 1.216 3.168 1.930667 3.936 3.264l4.565333 9.664-0.64 0.266667 5.888 5.44c-2.816 0.437333-4.330667 0.672-6.741333 1.066667l5.429333 4.416 3.114667-5.312c2.912 4.16 5.546667 7.733333 8 11.434666 2.133333 3.232 7.893333 2.026667 10.496-2.058666 1.386667-2.208 3.36-4.053333 5.792-5.226667 0.298667-1.312 0.16-3.050667 0.96-3.84 3.381333-3.285333 7.104-6.229333 10.56-9.44 1.034667-0.949333 1.578667-3.36 2.421333-3.402667 5.002667-0.213333 6.773333-5.376 10.986667-6.72 4.298667-1.354667 8.352-3.797333 12.714667-4.48 3.232-0.522667 7.466667 0.010667 10.016 1.834667 3.616 2.581333 6.421333 6.56 8.96 10.357333 4.298667 6.421333 1.92 13.226667-0.064 19.733334-0.789333 2.581333-0.512 6.272-4.597334 6.986666-0.213333 0.032-0.032 2.24-0.032 3.253334-1.450667 1.461333-2.901333 3.221333-4.650666 4.608-2.538667 2.005333-6.581333 3.2-7.637334 5.728-1.450667 3.488-2.634667 5.888-6.613333 6.570666-1.44 0.245333-2.858667 1.568-3.989333 2.709334-4.512 4.597333-8.906667 9.312-13.888 14.549333 3.349333 4.234667 6.922667 8.298667 9.973333 12.725333 2.442667 3.541333 4.117333 7.616 6.4 11.306667 3.082667 4.981333 5.909333 10.208 10.666667 13.941333 0.394667 0.298667 0.853333 0.64 1.034666 1.066667 1.493333 3.658667 3.242667 7.253333 4.32 11.04z" p-id="1224" fill="#818CF8"></path></svg>