<?xml version="1.0" standalone="no"?><!DOCTYPE svg PUBLIC "-//W3C//DTD SVG 1.1//EN" "http://www.w3.org/Graphics/SVG/1.1/DTD/svg11.dtd"><svg t="1651395050246" class="icon" viewBox="0 0 1024 1024" version="1.1" xmlns="http://www.w3.org/2000/svg" p-id="2027" width="48" height="48" xmlns:xlink="http://www.w3.org/1999/xlink"><defs><style type="text/css"></style></defs><path d="M947.744 525.226667c0.213333-5.269333-1.162667-10.581333-1.525333-15.893334-0.458667-6.837333-0.544-13.706667-0.928-20.554666-0.064-1.152-0.533333-3.082667-1.205334-3.264-3.136-0.864-1.898667-2.890667-1.898666-4.885334 0-4.138667 0.949333-9.077333-0.928-12.224-2.72-4.533333-2.986667-8.085333-0.96-11.36-4.330667-9.056-6.741333-17.674667-5.184-27.445333l-2.24-0.266667 1.354666-0.576c-0.746667-2.581333-1.290667-5.248-2.304-7.712-0.746667-1.770667-2.645333-3.114667-3.136-4.896-1.461333-5.312-1.397333-11.338667-3.925333-16.010666-4.074667-7.562667-5.269333-15.957333-8.64-23.68-3.338667-7.584-5.877333-15.509333-8.672-23.328-0.661333-1.856-0.789333-3.914667-1.472-5.76a29.514667 29.514667 0 0 0-2.784-5.568c-5.44-8.490667-11.125333-16.810667-16.394667-25.397334-3.968-6.464-7.114667-13.429333-11.221333-19.786666-2.549333-3.957333-6.357333-7.093333-9.301333-10.837334-1.162667-1.472-1.525333-3.584-1.941334-4.618666-2.485333-2.090667-6.112-3.616-6.656-5.877334-1.6-6.666667-6.794667-10.421333-10.592-15.306666-1.301333-1.685333-2.965333-3.104-4.256-4.789334-3.104-4.032-5.237333-9.76-9.290666-11.904-7.584-4-10.410667-11.445333-15.466667-17.184-1.824-2.048-2.090667-5.525333-3.989333-7.445333-2.389333-2.442667-5.994667-3.648-8.576-5.941333-3.872-3.424-8.309333-6.090667-10.997334-11.04-1.536-2.805333-5.76-4.138667-8.768-6.122667-1.205333-0.362667-1.941333-2.698667-2.72-2.709333-3.936-0.042667-4.661333-3.52-6.741333-5.536a72.384 72.384 0 0 0-5.706667-4.992 177.728 177.728 0 0 0-8.746666-6.368c-2.56-1.738667-5.301333-3.242667-7.882667-4.96a898.144 898.144 0 0 1-16.373333-11.072c-3.722667-2.592-7.178667-5.578667-11.008-7.989334-2.773333-1.749333-5.962667-2.869333-8.96-4.266666-1.162667 1.792-2.613333 0.437333-4.213334-1.525334-3.584-4.352-8.736-5.546667-13.909333-5.984-5.76-0.48-10.304-2.464-13.610667-7.370666a8.064 8.064 0 0 0-4.181333-2.805334c-2.965333-0.874667-6.133333-1.045333-9.12-1.866666-3.232-0.896-6.314667-2.272-9.514667-3.317334-4.042667-1.333333-8.128-2.517333-12.192-3.818666-0.245333-0.074667-0.330667-0.608-0.576-0.757334-2.101333-1.216-4.789333-3.861333-6.229333-3.296-3.616 1.408-6.058667-0.96-8.949333-1.493333-5.909333-1.098667-11.712-2.752-17.504-4.394667-3.466667-0.970667-6.805333-2.357333-10.421334-3.637333-4.746667 0.746667-9.781333 0.842667-14.293333-2.058667-1.824 0.970667-3.765333 1.792-5.461333 1.429334-1.898667-0.416-3.488-2.538667-5.354667-2.805334-5.930667-0.832-11.925333-1.152-17.994667-1.674666l1.077334 1.930666c-1.856-0.693333-3.210667-1.728-4.224-1.461333-4.629333 1.216-9.013333-1.898667-13.866667-0.117333-2.944 1.088-6.741333-0.298667-10.122667-0.149334a86.261333 86.261333 0 0 0-11.84 1.301334c-4.533333 0.842667-8.970667 2.144-13.472 3.2-4.202667 0.981333-8.373333 2.090667-12.629333 2.72-1.621333 0.245333-3.424-0.970667-5.141333-0.992-4.586667-0.064-9.162667 0.117333-13.749334 0.288-5.952 0.224-11.893333 0.522667-17.888 0.8l-0.256-2.656c-1.952 0.522667-3.648 1.194667-5.397333 1.408-3.189333 0.405333-6.485333 0.181333-9.578667 0.906666-2.976 0.704-5.664 2.613333-8.629333 3.370667-2.677333 0.693333-5.813333-0.064-8.309333 0.917333-2.912 1.162667-6.634667 3.146667-9.525334 2.677334-5.397333-0.864-10.741333-2.122667-15.605333 1.728-0.117333 0.085333-0.746667-0.672-1.056-0.608-3.338667 0.650667-7.104 0.672-9.877333 2.314666-2.784 1.642667-4.618667 4.714667-8.352 5.258667a15.232 15.232 0 0 0-5.994667 2.4c-2.186667 1.44-3.690667 1.557333-4.938667-1.034667-3.072 4.042667-6.368 7.552-12.501333 4.437334l1.578667 2.005333c-3.424 1.696-6.709333 3.168-9.845334 4.928-3.072 1.728-5.845333 4.032-8.992 5.568-4.170667 2.037333-8.725333 3.296-12.832 5.44-4.053333 2.112-7.786667 4.864-11.594666 7.434667-2.165333 1.461333-4.074667 3.392-6.378667 4.576-2.272 1.162667-4.96 1.504-7.381333 2.453333-1.322667 0.522667-3.146667 1.312-3.530667 2.410667-0.672 1.898667-0.384 4.117333-0.490667 5.909333l-6.634666-1.056-0.362667 1.258667 2.048 1.653333c-2.581333 1.258667-5.493333 2.208-7.818667 3.946667-2.453333 1.834667-4.330667 4.437333-6.453333 6.709333l-6.986667 7.562667-4.277333-2.666667c-1.344 2.229333-2.058667 4.106667-3.36 5.365333s-3.285333 1.770667-4.810667 2.848c-3.797333 2.677333-7.008 6.645333-9.578666 9.877334-3.818667 4.789333-9.130667 7.392-12.832 12.010666-4.661333 5.824-10.453333 10.730667-15.178667 16.512-3.402667 4.138667-7.530667 7.829333-9.024 13.525334-0.608 2.314667-3.808 5.92-5.333333 5.696-7.082667-1.066667-6.368 5.589333-9.237334 8.458666-2.592 2.581333-3.712 7.317333-6.634666 8.725334-4.992 2.421333-7.029333 6.112-8.650667 10.784-0.266667 0.778667-2.197333 0.992-2.624 1.162666-1.92 3.125333-3.584 6.144-5.568 8.938667-1.664 2.357333-4.032 4.266667-5.493333 6.730667-2.037333 3.434667-2.944 7.658667-5.397334 10.666666-2.08 2.549333-1.994667 5.941333-5.130666 8.288-3.733333 2.794667-6.293333 7.445333-8.714667 11.658667-4.597333 8.074667-8.533333 16.544-13.141333 24.618667-4.906667 8.576-5.237333 19.381333-13.152 26.506666-1.28 1.162667-1.973333 3.082667-2.709334 4.746667-1.749333 4-3.594667 7.989333-4.938666 12.128-1.258667 3.808-1.898667 7.808-3.093334 12.928-2.176 1.312-2.090667 1.312-2.229333 5.429333-0.010667 0.832-0.704 1.888-1.397333 2.410667-2.154667 1.6-2.602667 3.242667-1.301334 5.728 0.458667 0.885333-0.138667 2.549333-0.650666 3.68-1.504 3.306667-4.768 6.677333-4.48 9.738667 0.554667 5.525333-3.722667 8.469333-4.832 12.885333-0.064 0.245333-0.810667 0.245333-1.12 0.512-1.621333 1.418667-3.786667 2.634667-4.565334 4.437333-0.458667 1.024 1.365333 3.050667 2.218667 4.736l-7.146667 30.197334a230.976 230.976 0 0 0-2.112-0.576c0.234667 3.445333 1.664 8.298667 0.437334 9.098666-4.256 2.784-3.690667 8.010667-3.349334 10.208 1.397333 8.896-7.594667 15.36-4.725333 24.149334 0.106667 0.330667-0.512 0.853333-0.64 1.322666-0.405333 1.632-0.928 3.274667-1.066667 4.938667-0.544 6.058667-0.949333 12.128-1.418666 18.197333-0.096 1.269333-0.832 2.890667-0.298667 3.744 3.232 5.194667-0.245333 10.186667-0.149333 15.253334 0.064 3.797333-0.629333 7.797333 0.373333 11.317333 1.184 4.181333 1.824 7.477333-2.410667 10.090667-0.746667 0.469333-1.194667 1.408-1.717333 2.048 1.888 0.458667 4.842667 0.682667 4.906667 1.258666 0.554667 4.576 0.704 9.216 0.661333 13.834667-0.021333 1.856-0.842667 3.712-1.28 5.568-0.042667 0.213333 0.064 0.458667 0.128 0.853333l1.173333-0.32c0.64 3.968 1.141333 8.096 2.048 12.117334 0.362667 1.621333 2.752 3.669333 2.314667 4.458666-2.432 4.309333 0.618667 7.061333 2.250667 10.250667 1.504 2.965333 3.541333 5.984-0.448 7.210667l6.474666 20.362666c0.277333 0.352 1.610667 1.354667 1.909334 2.602667 1.333333 5.493333 1.92 10.976 5.290666 16.074667 2.624 3.968 3.466667 9.290667 4.352 14.154666 0.458667 2.517333 2.272 8.298667 3.818667 10.304 2.762667 3.626667 7.925333 6.101333 6.485333 11.658667 1.162667 0.352 2.794667 0.384 3.050667 0.992 1.088 2.538667 1.333333 5.493333 2.666667 7.850667 2.933333 5.152 5.664 10.656 9.664 14.901333 7.882667 8.373333 15.818667 16.437333 20.32 27.392 1.525333 3.722667 5.056 6.72 8.010666 9.738667 3.68 3.765333 7.872 7.04 11.530667 10.826666 2.88 2.997333 5.194667 6.538667 8 9.632 0.682667 0.746667 2.282667 0.672 3.413333 0.96l-1.994666 2.72c1.866667 0.138667 4.106667-0.352 5.173333 0.544 1.610667 1.354667 2.197333 5.141333 3.573333 5.333334 5.514667 0.768 5.226667 5.706667 6.741334 7.392 2.965333 1.290667 5.130667 1.706667 6.581333 2.944 2.869333 2.453333 5.12 5.589333 8 8 3.050667 2.56 6.410667 4.789333 9.824 6.837333 6.24 3.733333 12.586667 7.306667 18.965333 10.773333 3.594667 1.952 7.370667 3.562667 11.050667 5.344 5.568 2.677333 8.362667 9.12 15.242667 10.325334 4.405333 0.778667 8.554667 3.221333 12.725333 5.12 2.293333 1.056 4.981333 2.058667 6.485333 3.904 5.376 6.581333 13.290667 6.421333 20.405334 8.458666 2.154667 0.618667 4.138667 1.845333 6.197333 2.784 1.568 0.970667 3.626667 0.917333 5.397333 1.589334 4.554667 1.738667 8.949333 3.872 13.450667 5.728 3.008 1.248 6.08 2.389333 9.162667 3.445333 3.754667 1.290667 7.498667 2.741333 11.349333 3.616 6.229333 1.408 13.034667 0.853333 18.016 5.578667 0.512-0.618667 1.216-1.888 1.525333-1.792 9.312 2.656 18.602667 5.44 27.157334 8 1.866667-0.458667 3.658667-1.525333 5.056-1.141334 6.293333 1.717333 12.405333 4.074667 18.72 5.717334 3.328 0.864 6.922667 0.992 10.389333 0.949333 3.616-0.064 7.221333-0.746667 10.826667-1.152 1.92 0.682667 3.434667 4.544 6.88 0.48 0.192-0.224 1.184 0.266667 1.813333 0.362667 5.386667 0.810667 10.784 1.685333 16.192 2.378666 4.458667 0.576 8.938667 1.194667 13.408 1.28 4.010667 0.074667 8.032-0.448 12.032-0.864 3.402667-0.352 7.093333-0.224 10.08-1.578666 3.68-1.664 4.032 0.234667 4.853333 3.637333 1.461333-1.141333 2.634667-2.08 3.850667-2.976 0.736-0.554667 1.738667-1.632 2.261333-1.450667 4.298667 1.514667 8.405333 1.706667 12.416-0.874666 0.426667-0.288 1.226667-0.032 1.845334 0.032 4.789333 0.522667 9.696 1.962667 14.282666 1.28 3.552-0.522667 8.597333 1.728 10.912-3.445334 0.085333-0.192 1.482667 0.362667 2.24 0.277334 2.634667-0.298667 5.813333 0.074667 7.776-1.269334 4.469333-3.072 9.482667-1.941333 14.101334-2.4 6.197333-0.629333 12.714667 1.610667 18.496-2.453333 0.224-0.149333 0.672-0.128 0.981333-0.042667 7.072 2.005333 12.917333-2.794667 19.52-3.722666 7.232-1.013333 13.973333-5.109333 21.184-6.794667 4.138667-0.96 7.509333-7.050667 12.64-2.005333 1.397333-3.701333 3.498667-5.493333 7.392-4.629334 1.077333 0.234667 2.442667-0.576 3.616-1.066666 4.522667-1.952 8.874667-4.832 13.589333-5.632 3.029333-0.512 5.386667-1.856 8.085334-2.730667 4.266667-1.397333 8.704-2.261333 13.066666-3.349333l0.64 1.365333 0.48-2.314667c7.616-3.04 14.645333-5.472 21.333334-8.618666 6.976-3.285333 13.621333-7.264 20.416-10.944 1.450667-0.714667 2.656-2.464 4.277333-2.976 5.962667-1.930667 8.341333-10.165333 15.968-9.002667 2.378667-6.336 9.525333-4.021333 13.728-7.530667 3.488-2.922667 6.357333-7.413333 11.808-7.509333 0.277333 0 0.565333-0.778667 0.789333-1.226667 1.589333-3.157333 4.096-3.893333 7.328-2.901333 0.192 0.064 0.522667-0.288 1.002667-0.576l-0.693333-2.122667c3.722667-1.781333 7.744-2.250667 10.037333-6.709333 1.450667-2.837333 4.522667-6.026667 7.424-6.698667 6.122667-1.418667 9.088-6.144 13.045333-9.888 2.602667-2.464 4.629333-5.866667 7.648-7.498666 7.392-3.989333 12.8-9.984 18.24-16.021334 1.749333-1.941333 3.178667-4.16 4.896-6.133333 3.744-4.266667 9.109333-6.688 11.104-13.109333 1.098667-3.552 6.56-5.738667 10.048-8.544 1.312-1.098667 2.218667-3.114667 3.2-5.077334 0.266667-0.544 1.002667-0.917333 1.141334-1.461333 0.661333-2.709333 0.608-5.781333 1.909333-8.117333 2.389333-4.288 5.770667-8.021333 8.373333-12.213334 4.874667-7.84 9.578667-15.797333 14.176-23.808 2.784-4.842667 5.365333-9.813333 7.776-14.848 2.101333-4.352 3.776-8.917333 5.717334-13.344 2.432-5.546667 5.141333-10.986667 7.370666-16.618666 1.226667-3.114667 1.717333-6.517333 2.538667-9.792 1.717333-6.805333 6.805333-12.341333 6.741333-19.914667-0.074667-7.434667 5.738667-13.429333 5.493334-21.322667-0.181333-5.621333 2.101333-11.306667 3.157333-16.970666 1.173333-6.272 2.485333-12.533333 3.2-18.848 0.576-5.130667 0.554667-10.357333 0.426667-15.530667-0.149333-5.525333-1.269333-11.061333-0.970667-16.544 0.32-6.133333 2.282667-12.192 2.528-18.325333z m42.133333-2.816v29.749333l0.277334 0.032c-0.405333 7.488-1.088 14.901333-1.152 22.314667-0.064 8.938667-0.896 17.664-3.829334 26.154666-0.437333 1.28-0.309333 2.752-0.576 4.117334-0.352 1.781333-0.842667 3.530667-1.333333 5.525333h1.557333c-0.309333 5.258667-0.149333 10.496-1.066666 15.552-0.650667 3.552-3.221333 6.730667-4.085334 10.282667-1.312 5.344-1.856 10.869333-2.794666 16.309333-0.266667 1.6-0.266667 3.946667-1.28 4.608-4.928 3.253333-3.52 8.682667-5.109334 13.056a29.824 29.824 0 0 1-3.328 6.453333c-1.205333 1.781333-3.328 3.168-0.405333 5.301334 0.16 0.117333-1.429333 2.432-2.026667 3.797333-3.114667 7.008-7.189333 13.802667-8.981333 21.152-1.952 7.989333-7.178667 13.546667-11.168 20.085333-3.082667 5.056-5.696 10.378667-8.810667 15.413334-1.344 2.154667-3.434667 3.84-5.152 5.770666-0.661333 0.736-1.376 1.482667-1.834666 2.357334-1.28 2.485333-1.952 5.482667-3.754667 7.466666-3.893333 4.288-4.586667 9.834667-6.912 14.698667-1.248 2.570667-3.2 5.258667-5.568 6.677333-4.224 2.56-1.728 7.968-5.290667 10.517334-1.664 1.184-3.690667 2.133333-4.864 3.701333-1.290667 1.749333-5.610667 1.493333-3.786666 5.76 0.341333 0.810667-2.56 3.861333-4.458667 4.618667-6.442667 2.538667-8.618667 8.458667-12.021333 13.546666-1.632 2.410667-3.882667 4.48-6.122667 6.389334-5.376 4.608-10.72 9.290667-16.469333 13.429333-5.653333 4.085333-8.341333 11.765333-16.277334 13.152-1.205333 0.202667-1.898667 2.570667-3.168 3.445333-3.701333 2.570667-7.84 4.576-11.338666 7.392-3.488 2.805333-6.357333 6.368-9.621334 9.482667-2.656 2.549333-4.170667 6.858667-9.173333 5.994667-0.757333-0.128-1.930667 0.629333-2.506667 1.312-2.517333 2.912-4.885333 5.952-7.306666 8.949333l-1.045334-1.653333c-3.712 1.493333-7.808 2.432-11.04 4.629333-3.552 2.421333-6.304 6.016-9.941333 9.642667-6.304-1.333333-10.250667 4.469333-15.488 8.810666l2.346667-3.968-41.397334 20.117334c-5.525333-7.946667-5.856-8-10.730666-1.461334l3.594666 3.893334c-1.696 0.533333-4.117333 1.152-6.442666 2.069333-5.056 1.973333-9.973333 4.32-15.082667 6.122667-4.213333 1.472-8.64 2.346667-12.928 3.605333-0.768 0.224-1.386667 1.002667-2.048 1.557333-0.608 0.501333-1.312 1.6-1.738667 1.504-7.925333-2.026667-13.269333 3.914667-19.616 6.474667a85.866667 85.866667 0 0 1-24.682666 5.92c-4.128 0.373333-8.117333 2.784-12.042667 4.554667-3.008 1.365333-5.813333 3.178667-8.618667 4-4.128 0.277333-8.245333 0.597333-12.373333 0.8-3.189333 0.16-6.4 0.213333-9.6 0.288-3.776 0.074667-7.690667-0.469333-11.296 0.309333-5.322667 1.162667-10.346667 3.616-15.658667 4.768-1.792 0.384-4.085333-1.546667-4.778666-1.845333-4.074667 1.205333-7.264 2.272-10.528 3.04a72.192 72.192 0 0 1-10.197334 1.824c-1.941333 0.170667-3.957333-0.533333-5.930666-0.832l-0.490667 1.333333-2.965333-3.189333a61.973333 61.973333 0 0 0-0.021334 1.408c-2.816 0.458667-6.197333 0.096-8.309333 1.568-2.794667 1.930667-5.450667 1.664-8.096 1.269333-6.965333-1.024-13.728 1.056-20.586667 0.885333-2.101333-0.053333-4.117333-1.589333-6.250666-1.866666-1.12-0.149333-2.389333 0.96-4.032 1.706666a250.272 250.272 0 0 1-0.405334-3.402666l-5.173333-1.408 4.96 3.861333c-4.085333 0-6.922667 0.458667-9.546667-0.106667-4.170667-0.906667-9.002667 2.261333-12.682666-2.165333-0.48-0.576-2.773333 0.16-4.138667 0.586667-5.28 1.632-9.290667-1.493333-13.674667-3.370667-0.64-0.277333-1.653333 0.437333-2.496 0.437333-2.688-0.010667-5.376-0.16-8.064-0.202666-1.248-0.021333-2.72-0.341333-3.722666 0.192-5.877333 3.072-11.701333-0.629333-17.557334-0.021334-1.130667 0.117333-2.336-2.272-3.712-2.570666-7.114667-1.525333-14.336-2.538667-21.418666-4.170667-3.232-0.746667-6.24-2.517333-9.898667-4.053333-0.853333 0.16-2.794667 1.013333-4.64 0.832-5.376-0.554667-10.848-0.992-16.021333-2.421334-7.68-2.122667-15.061333-5.269333-22.698667-7.562666-5.141333-1.557333-10.496-2.432-15.765333-3.562667-1.098667-0.234667-2.378667 0.010667-3.306667-0.469333-4.021333-2.090667-7.946667-4.352-12.245333-6.752l1.930666-2.261334c-0.064-0.149333-0.106667-0.416-0.181333-0.416-3.082667-0.245333-6.176-0.448-9.258667-0.714666-1.184-0.106667-2.517333-0.085333-3.509333-0.629334-5.557333-2.965333-10.506667-6.869333-17.418667-7.157333-3.136-0.128-6.058667-3.424-9.248-4.896-4.394667-2.026667-8.96-3.669333-13.429333-5.525333-1.034667-0.426667-2.208-0.853333-2.944-1.621334-6.656-7.082667-15.68-11.2-23.946667-14.965333-10.549333-4.810667-19.637333-11.722667-29.696-17.109333-8.586667-4.597333-16.149333-11.146667-23.210666-18.24-2.304-2.304-6.965333-3.605333-10.08-6.101334-3.573333-2.869333-7.850667-5.194667-8.330667-10.624-0.096-1.034667-1.205333-2.218667-2.165333-2.890666-3.392-2.432-7.733333-4.010667-10.218667-7.114667-3.136-3.914667-9.706667-5.781333-9.888-11.968-1.248-2.090667-2.464-4.192-3.712-6.272-0.746667-1.237333-1.248-2.997333-2.368-3.594667-7.701333-4.181333-12.16-10.826667-15.637333-18.645333-1.386667-3.104-4.757333-5.28-6.922667-8.106667a824.853333 824.853333 0 0 1-15.210667-20.565333c-0.821333-1.141333-1.472-2.890667-1.269333-4.192 0.938667-5.728-2.826667-8.842667-6.122667-12.394667-1.194667-1.290667-1.792-3.125333-3.125333-5.557333-2.026667-0.298667-5.376-4.928-5.312-8.746667 0.042667-2.325333 0-4.832-0.789333-6.954666-1.152-3.029333-3.04-5.770667-4.554667-8.672-1.312-2.506667-2.624-5.002667-3.744-7.594667-0.469333-1.098667-0.426667-2.410667-0.64-3.765333-2.186667-1.248-7.466667-0.8-3.541333-6.528 0.64-0.938667-0.576-3.146667-1.024-5.184l-1.290667 0.437333c-1.013333-4.213333-1.994667-8.48-3.072-12.714667-0.234667-0.928-0.853333-1.738667-1.152-2.656-1.269333-3.754667-2.08-7.712-3.776-11.242666-2.528-5.248-3.488-10.773333-4.490667-16.394667-1.066667-6.048-2.805333-11.978667-3.818666-18.037333-0.650667-3.882667-0.522667-7.904-0.778667-12.64 0.96-0.853333 4.245333-2.304-0.522667-4.576-0.853333-0.416-1.354667-2.112-1.536-3.285334-1.12-7.424-0.032-14.72 1.152-22.069333 0.576-3.701333 0.16-7.626667-0.266666-11.402667-0.746667-6.624-2.005333-13.184-2.72-19.797333-0.138667-1.344 1.216-2.848 1.888-4.32L32 556.362667l1.333333 0.234666c1.045333-3.413333 2.72-6.773333 2.997334-10.250666 0.426667-5.418667-0.256-10.912-0.106667-16.373334 0.032-1.248 1.941333-2.368 2.218667-3.701333 0.629333-3.008 0.608-6.144 1.194666-9.162667 0.650667-3.264 1.770667-6.442667 2.528-9.696 0.224-1.024 0.288-2.410667-0.234666-3.189333-1.397333-2.090667-2.197333-3.68 0.810666-5.077333 0.405333-0.192 0.053333-2.026667 0.053334-3.466667l5.109333 0.64c-7.370667-7.338667-0.832-15.157333-2.954667-22.4 4.085333-2.090667 7.616-14.634667 5.685334-18.496 1.098667-1.994667 2.133333-3.637333 2.933333-5.386667 0.714667-1.578667-0.544-3.957333 2.250667-4.853333 0.512-0.16-0.277333-3.168 0.490666-3.946667 1.685333-1.738667 3.968-2.901333 5.301334-3.818666-0.48-2.122667-1.706667-4.256-1.205334-5.813334 2.624-8.021333 3.968-16.661333 9.045334-23.605333l1.141333 0.522667c-0.341333-2.24-0.661333-4.48-1.045333-7.104l2.965333 1.621333c0.16-0.362667 0.437333-0.704 0.352-0.906667-1.6-4.117333-0.245333-7.242667 1.589333-11.296 1.973333-4.362667 6.293333-8.288 5.130667-14.261333-0.384-1.952 2.357333-4.405333 3.338667-6.762667 2.101333-5.098667 2.752-11.488 6.282666-15.136 4.085333-4.213333 6.218667-9.301333 9.536-13.76 0.981333-1.322667 1.173333-3.242667 1.845334-5.269333l2.112 0.117333-1.12-0.896c1.493333-2.133333 3.274667-4.117333 4.426666-6.432 1.92-3.850667 3.082667-8.106667 5.194667-11.829333 2.613333-4.608 4.906667-9.685333 6.976-14.24 1.994667-4.405333 8.32-6.133333 7.306667-12.266667-0.202667-1.290667 2.730667-3.370667 4.522666-4.661333 5.312-3.818667 7.093333-9.642667 9.450667-15.264 0.597333-1.44 4.266667-0.853333 3.36-4.042667-0.288-1.002667-0.32-2.090667-0.469333-3.093333l4.426666 1.386667c2.144-13.354667 10.485333-21.866667 20.618667-29.269334 1.301333-0.949333 6.133333-1.856 2.549333-5.685333-0.117333-0.117333 0.490667-1.109333 0.928-1.493333 3.914667-3.413333 7.904-6.730667 11.776-10.176 0.8-0.704 1.269333-1.813333 1.792-2.784 1.322667-2.453333 2.410667-4.768 5.589334-5.834667 1.941333-0.661333 3.488-3.093333 4.757333-5.024 1.205333-1.845333 6.272-1.152 3.797333-5.546667-0.096-0.170667 1.354667-0.949333 1.568-1.610666 0.832-2.549333 5.546667-2.858667 3.957334-6.912-0.128-0.341333 1.781333-1.621333 2.869333-2.261334 2.485333-1.472 6.997333-0.874667 5.76-6.122666-0.117333-0.48 3.36-1.333333 3.818667-2.528 2.816-7.349333 10.912-8.992 15.264-14.602667 1.557333-2.005333 4.053333-3.402667 5.258666-5.557333 2.037333-3.68 4.704-5.578667 8.896-6.272 1.461333-0.245333 2.261333-3.328 3.850667-4.181334 2.357333-1.258667 5.184-1.621333 7.765333-2.474666a2.570667 2.570667 0 0 0 1.397334-1.301334c1.930667-4.704 3.413333-5.589333 7.317333-5.12 1.888-2.176 3.146667-4 4.768-5.418666 2.4-2.101333 5.056-3.882667 7.573333-5.824 2.421333-1.856 4.778667-3.797333 7.232-5.589334 6.005333-4.362667 12.010667-8.704 18.090667-12.949333 1.312-0.906667 2.922667-1.333333 4.362667-2.058667 4.864-2.474667 9.738667-4.928 14.517333-7.552 0.565333-0.32 0.533333-1.717333 0.885333-3.029333l2.901334 3.616c-0.074667-5.290667 2.368-7.84 8.810666-8.416 5.546667-0.501333 10.496-1.408 15.168-5.248 1.845333-1.525333 5.973333-6.016 9.856-1.354667 4.106667-4.896 16.992-9.450667 19.402667-8.149333 4.330667-1.984 7.701333-4.629333 11.232-4.885333 4.8-0.330667 9.066667-4.053333 14.368-2.058667 0.576 0.213333 4.469333-2.197333 7.104-2.634667 2.442667-0.405333 4.928-0.533333 7.36-0.938666 2.346667-0.394667 4.661333-1.088 7.018667-1.450667 1.130667-0.170667 2.336 0.128 4.650666 0.288 1.792-2.485333 5.408-2.250667 8.352-0.170667 4.213333 3.008 7.413333 3.274667 10.058667-1.696 2.858667 1.376 5.162667 2.464 7.445333-0.96 0.821333-1.248 4.042667-0.896 6.570667-1.354666l-0.832-2.154667c3.989333 0 8.789333-1.472 11.424 0.298667 6.037333 4.053333 10.176-0.8 15.146667-1.418667 6.890667-0.874667 13.824-1.386667 20.757333-1.888 0.661333-0.042667 1.418667 1.12 2.538667 2.069333l-0.341334-4.469333c4.554667 0.394667 9.130667 0.693333 13.664 1.344 0.554667 0.074667 0.810667 2.101333 1.333334 3.594667l2.773333-0.288L528.352 53.333333c9.664 4.053333 18.389333-2.026667 27.562667 1.546667 4.618667 1.802667 10.656-0.192 16.042666-0.042667 1.802667 0.053333 3.552 1.973333 5.376 2.069334 4.032 0.213333 8.128 0.010667 12.16-0.416 2.485333-0.277333 4.213333-1.429333 6.826667 1.333333 2.176 2.293333 6.890667 2.304 10.528 3.093333 2.176 0.458667 4.437333 0.469333 6.666667 0.693334 3.104 0.32 6.997333-0.085333 9.184 0.64 6.730667 2.24 14.624-0.576 20.586666 5.482666 2.890667 2.933333 8.021333 3.84 12.224 3.658667 4.341333-0.192 7.029333 1.482667 10.304 3.776 3.04 2.122667 7.104 3.082667 10.869334 3.84 5.194667 1.056 10.208 1.962667 12.202666 7.829333 6.037333-4.757333 7.370667-4.725333 8.618667-0.853333l13.450667 4.266667 1.002666 2.805333c6.837333-0.437333 10.453333 6.432 16.896 6.474667 1.973333 0.010667 3.818667 3.029333 5.898667 4.405333 1.216 0.810667 2.752 1.173333 4.192 1.568 1.76 0.48 4.672-0.746667 4.074667 2.965333-0.021333 0.117333 0.170667 0.405333 0.234666 0.394667 6.005333-1.002667 7.296 7.733333 13.856 6.517333 2.037333-0.373333 6.954667-0.117333 6.24 5.141334l4.821334-1.354667c-0.981333 8.437333 6.677333 9.088 11.04 12.096 2.965333 2.048 5.610667 3.626667 7.477333 6.826667 0.885333 1.504 3.136 2.346667 4.917333 3.157333 2.4 1.088 4.981333 1.76 7.381334 2.869333 0.64 0.298667 0.874667 1.504 1.365333 2.410667 2.890667-1.322667 4.618667-0.394667 6.346667 3.370667 1.077333 2.346667 4.874667 3.445333 7.722666 5.258666l-1.866666 3.008 6.56-1.696c-2.090667 3.509333 0.149333 5.248 2.677333 7.392 5.024 4.256 9.589333 9.034667 14.496 13.429334 1.173333 1.066667 3.264 1.173333 4.330667 2.304 1.12 1.184 1.514667 3.072 2.549333 5.397333 0.106667 0.010667 1.269333 0 2.24 0.426667 1.226667 0.544 4.864-1.877333 3.306667 2.464-0.021333 0.042667 0.842667 0.618667 1.258666 0.576 4.064-0.373333 5.12 1.365333 3.818667 5.088-0.117333 0.352 0.928 1.173333 1.493333 1.696 3.434667 3.232 7.082667 6.272 10.304 9.706666 3.328 3.541333 6.368 7.381333 9.322667 11.242667 1.418667 1.856 2.090667 4.298667 3.584 6.08 4 4.757333 8.394667 9.194667 12.362667 13.994667 1.696 2.048 2.570667 4.768 4.096 7.008 2.912 4.32 6.218667 8.384 8.96 12.810666 0.896 1.418667 0.522667 3.626667 0.672 4.938667 2.112 2.090667 4.48 3.765333 5.962666 6.026667 2.474667 3.786667 4.192 8.064 6.624 11.882666 1.013333 1.568 3.466667 2.208 4.501334 3.776 2.229333 3.402667 4.064 7.061333 5.856 10.730667 3.317333 6.752 6.432 13.589333 9.696 20.373333 1.269333 2.645333 2.848 5.152 4.042666 7.829334 0.618667 1.418667 0.650667 3.082667 1.002667 4.629333 0.245333 1.002667 0.266667 2.506667 0.917333 2.912 6.741333 4.181333 7.968 11.061333 9.397334 17.994667 0.384 1.856 1.856 3.498667 2.976 5.514666-1.450667 1.738667-0.405333 3.008 1.845333 5.429334 2.677333 2.890667 4.896 6.592 6.122667 10.325333 1.301333 3.904 1.184 8.288 1.706666 12.650667l1.184-0.224c1.973333 5.28 4.042667 10.048 5.536 14.997333 1.706667 5.632 2.954667 11.402667 4.234667 17.152 0.288 1.322667-0.106667 2.805333-0.106667 2.848 1.312 1.386667 2.474667 2.026667 2.602667 2.837333 1.28 7.274667 2.336 14.592 3.498667 21.888 0.48 3.04 2.048 6.304 1.365333 9.045334-1.653333 6.72 5.205333 12.384 1.898667 19.104-0.138667 0.277333 0.842667 0.970667 0.981333 1.546666 0.501333 2.165333 0.874667 4.362667 1.546667 7.904 0.032 1.056-0.064 3.018667 0.202666 4.917334 0.512 3.658667 1.472 7.242667 1.845334 10.912 0.832 8.170667 1.578667 16.362667 1.973333 24.576 0.074667 1.493333-1.674667 3.072-2.122667 3.808zM687.829333 677.354667c-0.192-1.6 0.064-3.413333-0.64-4.757334-1.92-3.765333-3.392-8.96-6.592-10.634666-6.186667-3.2-13.365333-4.608-20.266666-6.282667-1.824-0.426667-4.309333 0.469333-6.112 1.461333-3.552 1.973333-6.848 4.426667-11.274667 1.706667a274.88 274.88 0 0 1-0.821333 2.890667c-2.752-0.554667-5.024-1.152-7.328-1.450667-2.496-0.309333-5.130667 0-7.552-0.597333-5.408-1.333333-10.773333-1.034667-15.509334 1.525333-4.618667 2.506667-10.346667 0.085333-14.506666 3.872-0.512 0.469333-1.898667 0.074667-2.858667-0.074667-1.728-0.277333-3.424-0.725333-5.152-0.992-2.186667-0.352-4.832 0.085333-6.528-0.992-5.781333-3.669333-9.738667 2.24-13.845333 1.845334-2.432-0.832-4.213333-2.026667-5.866667-1.898667-4.234667 0.384-8.426667 1.301333-12.597333 2.154667-0.608 0.128-1.493333 1.013333-1.525334 1.6-0.181333 3.648-2.602667 2.538667-4.608 2.272-8.448-1.066667-16.874667-2.698667-25.354666-3.050667-3.541333-0.149333-6.730667-0.16-9.877334-1.856-0.650667-0.352-2.037333-0.384-2.517333 0.064-6.314667 5.866667-13.024 4.394667-19.872 1.290667a2.794667 2.794667 0 0 0-1.717333-0.256c-4.277333 1.194667-8.512 2.453333-12.778667 3.712l0.32-1.728-20.714667 4.416c-2.24-1.269333-4.373333-2.933333-4.725333-2.602667-2.570667 2.282667-4.010667-0.192-5.973333-0.874667-1.962667-0.682667-4.405333-1.493333-6.186667-0.885333-2.752 0.938667-5.130667 3.029333-7.68 4.629333-3.530667-1.28-7.146667-1.472-10.773333-1.493333-2.688-0.021333-6.218667 1.312-7.893334 0.053333-3.861333-2.858667-5.728-0.885333-7.978666 2.048-2.922667-2.56-5.941333-3.306667-9.664-2.165333-4.384 1.354667-8.970667 2.058667-13.472 3.018667-1.973333 0.426667-4 0.608-5.941334 1.173333-3.488 1.013333-6.933333 2.218667-10.453333 3.381333-4.053333-4.842667-4.053333 5.504-8.010667 2.261334 2.165333 7.797333-3.125333 10.357333-6.293333 12.768 0.565333 2.048 1.205333 3.584 1.386667 5.184 0.277333 2.346667-0.192 4.842667 0.490666 7.04 0.384 1.237333 3.178667 1.738667 3.594667 2.997333 1.994667 6.005333 6.314667 7.957333 11.978667 10.282667 7.029333 2.88 13.856 0.757333 20.693333 1.973333 5.301333 0.928 11.253333-1.962667 16.917333-3.178667 0.597333-0.138667 1.333333-0.853333 1.706667-0.682666 6.581333 3.061333 13.429333 3.104 20.405333 2.08 2.613333-0.373333 5.226667-0.832 7.861334-0.96 4.48-0.234667 8.981333-0.32 13.472-0.288 3.296 0.021333 6.570667 0.288 9.856 0.554666 1.738667 0.128 3.488 0.832 5.162666 0.672 2.453333-0.213333 4.853333-1.002667 7.274667-1.536 1.866667-1.28 3.84-2.314667 5.674667-2.101333 5.717333 0.661333 11.221333 1.173333 15.413333-3.925333 1.493333 3.242667 3.413333 5.28 7.136 2.517333 0.448-0.32 1.376-0.266667 2.005333-0.085333 4.16 1.205333 8.202667 1.568 12.298667-0.618667 1.152-0.618667 2.933333-0.064 4.437333-0.106667 1.248-0.032 2.656 0.213333 3.722667-0.288 3.946667-1.834667 7.818667-2.933333 12.181333-1.162666 1.141333 0.458667 2.762667-0.256 3.552-0.362667 0.928 0.384 2.058667 1.258667 3.114667 1.184a171.2 171.2 0 0 0 12.106667-1.28c4.725333-0.661333 9.173333-2.986667 14.293333-0.576 2.88 1.344 6.570667 1.12 9.909333 1.333333 2.549333 0.16 5.322667-0.725333 7.658667-0.042666 3.402667 0.992 4.448-0.202667 4.576-3.445334l3.072 1.386667-0.373333-2.624c2.293333 3.669333 5.44 3.317333 8.885333 2.528 1.685333-0.384 4.074667-1.002667 5.152-0.192 3.722667 2.752 5.493333 0.661333 7.381333-2.282667 0.501333 1.333333 0.96 2.592 1.248 3.328 6.688-0.522667 12.181333-7.093333 19.072-1.685333 0.394667 0.32 1.728-0.8 2.656-0.896 4.245333-0.426667 8.053333-4.693333 12.8-1.354667 0.661333 0.458667 2.293333-0.48 2.634667-0.565333 2.496 0.810667 4.565333 2.133333 6.549333 2.005333 5.269333-0.309333 9.386667-5.717333 15.36-3.701333 0.469333 0.170667 1.322667-0.874667 2.026667-1.312 2.314667-1.472 4.906667-2.634667 6.901333-4.469333 2.613333-2.421333 5.045333-5.173333 6.933334-8.16 1.088-1.706667 0.96-4.16 1.482666-6.794667a340.266667 340.266667 0 0 0-2.741333-2.197333l4.682667-3.413334-1.461334-0.32z m38.346667-312.992a117.866667 117.866667 0 0 0-16.426667-12.768c-4.490667-2.826667-9.642667-5.205333-14.805333-6.165334-4.938667-0.928-10.368 0.970667-15.370667 0.213334-4.213333-0.64-7.594667 0.021333-11.413333 1.44-10.954667 4.106667-16.533333 13.461333-21.205333 22.869333-2.144 4.341333-0.362667 10.624-0.362667 16.010667l-3.061333 1.813333 1.6 0.074667c0.64 2.453333 1.312 4.885333 1.92 7.36 0.138667 0.512-0.106667 1.184 0.138666 1.621333 1.482667 2.698667 4.48 5.461333 4.298667 8-0.32 4.405333 2.016 3.456 3.04 3.488 1.802667 2.613333 2.730667 5.621333 4.501333 6.250667 5.738667 2.005333 7.562667 7.893333 11.712 11.445333 3.754667 3.221333 7.914667 3.477333 11.488 4.714667 5.056 1.738667 11.178667 0.682667 16.810667 0.32 2.528-0.170667 5.002667-2.325333 7.466667-2.272 5.973333 0.117333 10.346667-2.197333 12.885333-9.098667l1.226667 3.797333c3.626667-4.32 6.826667-7.893333 9.781333-11.701333 1.312-1.674667 2.176-3.712 3.093333-5.653333 0.746667-1.6 1.066667-3.434667 1.941334-4.938667 3.114667-5.418667 4.181333-11.701333 2.709333-17.194667a41.152 41.152 0 0 0-11.968-19.626666z m-353.834667 68.437333c3.018667-0.288 5.973333-2.122667 8.938667-2.090667 6.208 0.096 10.538667-2.165333 12.906667-9.28 0.64 2.218667 1.045333 3.498667 1.6 5.418667 5.514667-8.928 10.314667-16.32 14.72-23.968a23.210667 23.210667 0 0 0 2.528-16.821333c-1.845333-7.477333-6.218667-14.304-11.968-19.626667-4.949333-4.597333-10.645333-8.405333-16.021334-12.533333-6.08-4.650667-12.885333-7.125333-20.629333-6.784-3.797333 0.181333-7.584 0.213333-11.381333 0.32-2.773333 0.053333-5.813333-0.597333-8.266667 0.32-7.253333 2.730667-12.426667 8.448-17.493333 13.962666-2.666667 2.88-5.013333 6.730667-5.738667 10.496-0.970667 5.045333-0.245333 10.421333-0.245333 15.829334l-2.848 1.642666c1.237333 1.546667 2.624 2.688 3.189333 4.128 1.056 2.698667 0.917333 6.133333 2.56 8.256 2.24 2.848 0.277333 9.109333 5.653333 8.682667 1.333333 2.176 2.026667 4.992 3.541334 5.514667 5.866667 2.005333 8.042667 7.978667 12.085333 11.712 3.605333 3.306667 7.722667 3.306667 11.136 4.874666 4.341333 1.994667 10.432 0.426667 15.733333-0.053333z" p-id="2028" fill="#818CF8"></path></svg>