<?xml version="1.0" standalone="no"?><!DOCTYPE svg PUBLIC "-//W3C//DTD SVG 1.1//EN" "http://www.w3.org/Graphics/SVG/1.1/DTD/svg11.dtd"><svg t="1651395018794" class="icon" viewBox="0 0 1024 1024" version="1.1" xmlns="http://www.w3.org/2000/svg" p-id="1545" width="48" height="48" xmlns:xlink="http://www.w3.org/1999/xlink"><defs><style type="text/css"></style></defs><path d="M948.192 529.546667c0.245333-1.28 0.490667-2.602667 0.426667-3.882667a426.026667 426.026667 0 0 0-1.28-16.085333c-0.32-3.114667-0.992-6.186667-1.557334-9.269334-0.32-1.781333-0.853333-3.530667-1.066666-5.322666-0.298667-2.4 0.458667-6.165333-0.768-6.965334-2.453333-1.578667-1.813333-2.944-1.770667-5.034666 0.117333-4.128 1.013333-9.109333-0.885333-12.224-2.773333-4.533333-2.901333-8.085333-0.885334-11.722667-4.426667-7.264-5.536-14.976-5.952-22.869333a681.333333 681.333333 0 0 0-0.597333-10.474667c-0.021333-0.277333-0.362667-0.554667-0.586667-0.789333-2.837333-2.997333-4.32-6.282667-4.853333-10.634667-0.586667-4.64-3.093333-9.056-4.928-13.514667-1.152-2.794667-3.882667-5.6-3.616-8.170666 0.501333-5.002667-1.941333-8.608-3.552-12.757334-3.168-8.192-6.058667-16.501333-8.981333-24.778666-0.597333-1.717333-0.618667-3.648-1.28-5.312a34.496 34.496 0 0 0-3.136-5.877334c-5.269333-8.053333-10.869333-15.904-15.861334-24.117333-4.096-6.741333-7.189333-14.090667-11.36-20.768-2.496-3.989333-6.357333-7.104-9.28-10.848-1.226667-1.546667-1.642667-3.722667-2.432-5.632l-1.6 0.245333c-0.394667-3.274667-4.885333-3.402667-5.098666-7.637333-0.16-2.869333-4.586667-5.269333-6.154667-8.362667-2.154667-4.266667-7.498667-5.173333-9.013333-10.517333-1.162667-4.096-4.682667-8.768-8.426667-10.634667-7.84-3.925333-10.613333-11.669333-15.765333-17.557333-1.269333-1.450667-3.861333-2.944-1.92-5.76 0.074667-0.106667-1.162667-1.610667-1.92-1.770667-6.261333-1.28-9.450667-6.762667-14.08-10.229333-2.112-1.589333-3.157333-4.554667-5.205334-6.304-2.709333-2.336-5.909333-4.096-8.896-6.112-1.28-0.501333-2.026667-1.994667-3.189333-3.072-1.621333-1.514667-3.648-2.602667-5.301333-4.096-2.016-1.802667-3.648-4.064-5.76-5.728-3.189333-2.517333-6.613333-4.746667-10.016-6.997333-2.453333-1.632-5.066667-3.061333-7.541334-4.682667-5.504-3.637333-11.008-7.264-16.416-11.018667-3.722667-2.592-7.776-4.949333-10.773333-8.245333-2.517333-2.773333-8.906667 1.162667-8.490667-6.677333-1.802667 4.106667-3.2 3.2-4.906666 1.141333-3.712-4.448-8.981333-5.504-14.368-6.037333-5.28-0.512-9.685333-2.368-12.874667-6.901334a9.248 9.248 0 0 0-4.437333-3.253333c-2.944-0.938667-6.154667-1.002667-9.141334-1.845333-3.061333-0.864-5.952-2.314667-8.981333-3.306667-4.202667-1.365333-8.48-2.538667-12.714667-3.829333-0.245333-0.074667-0.341333-0.586667-0.597333-0.736-2.090667-1.226667-4.682667-3.818667-6.208-3.296-2.634667 0.896-3.818667-0.437333-5.813333-1.024-7.093333-2.058667-14.442667-3.210667-21.6-5.066667-2.848-0.746667-5.44-2.453333-8.170667-3.701333-0.384-0.170667-0.896-0.352-1.248-0.213334-5.216 1.909333-9.877333 0.426667-12.757333-1.312-3.306667 0.586667-5.301333 1.461333-7.029334 1.109334-1.898667-0.405333-3.477333-2.581333-5.365333-2.848-5.92-0.842667-11.914667-1.141333-17.973333-1.664l0.533333 1.034666c-3.733333-0.266667-7.413333-0.448-11.04-0.821333-1.738667-0.181333-3.413333-1.024-5.12-1.002667-1.28 0.021333-2.634667 1.557333-3.776 1.376-6.293333-1.045333-12.522667-0.373333-18.698667 0.618667-3.594667 0.565333-7.008 2.176-10.581333 3.008-5.429333 1.248-10.88 2.549333-16.394667 3.221333-3.093333 0.384-6.336-0.533333-9.514666-0.714666-2.133333-0.128-4.288-0.010667-6.421334 0.053333l-20.928 0.629333a232.768 232.768 0 0 0-0.256-2.570666c-1.866667 0.522667-3.573333 1.205333-5.333333 1.44-3.178667 0.405333-6.485333 0.149333-9.578667 0.885333-2.976 0.714667-5.642667 2.666667-8.618666 3.424-2.688 0.693333-6.058667-0.341333-8.298667 0.885333-3.264 1.792-6.421333 3.477333-10.016 2.762667-5.301333-1.066667-10.389333-1.941333-15.114667 1.653333-0.138667 0.096-0.746667-0.608-1.088-0.554666-3.338667 0.629333-7.125333 0.576-9.866666 2.24-2.773333 1.664-4.661333 4.672-8.32 5.28a16.597333 16.597333 0 0 0-6.026667 2.368c-2.165333 1.386667-3.712 1.866667-4.928-1.013334-3.136 3.957333-6.378667 7.68-12.672 4.32l1.536 1.877334c-1.536 1.12-2.72 2.570667-4.181333 2.933333-5.536 1.365333-9.898667 4.586667-14.506667 7.712-3.626667 2.464-8.362667 3.253333-12.330667 5.28-3.936 2.016-7.573333 4.597333-11.264 7.050667-2.592 1.728-4.885333 3.957333-7.573333 5.44-2.112 1.152-4.586667 1.877333-6.986667 2.112-2.122667 0.202667-4.032-0.330667-3.712 2.933333 0.181333 1.909333-0.245333 3.882667-0.362666 5.344l-6.698667-0.736-0.234667 1.450667 2.048 1.312c-2.56 1.248-5.482667 2.197333-7.808 3.925333-2.453333 1.834667-4.405333 4.362667-6.464 6.698667-2.410667 2.730667-4.693333 5.578667-7.029333 8.373333a58.485333 58.485333 0 0 1-0.906667-1.333333l-3.242666-2.058667c-1.514667 2.304-2.389333 4.224-3.797334 5.632-1.258667 1.269333-3.114667 1.941333-4.672 2.933333-3.829333 2.421333-4.544 8.266667-9.92 9.002667-1.685333 6.464-8.896 7.584-12.181333 12.522667-0.832 1.248-2.048 2.272-3.168 3.306666-2.965333 2.762667-6.464 5.098667-8.853333 8.277334-6.048 8.032-11.605333 16.437333-16.746667 23.797333-2.282667 0.106667-4.266667-0.362667-4.8 0.32-2.069333 2.56-3.605333 5.536-5.461333 8.288-2.165333 3.210667-3.797333 7.893333-6.816 9.152-5.045333 2.090667-6.293333 5.952-8.234667 9.962667-0.48 0.992-2.090667 1.44-2.922667 1.973333-1.706667 2.816-3.370667 5.845333-5.322666 8.650667-1.728 2.506667-4.725333 4.501333-5.514667 7.2-2.058667 7.104-6.293333 12.650667-10.752 18.218666-3.050667 3.808-6.101333 7.690667-8.501333 11.914667-4.608 8.074667-8.533333 16.544-13.152 24.608-4.906667 8.586667-5.226667 19.392-13.12 26.528-1.301333 1.173333-2.026667 3.061333-2.762667 4.736-1.738667 4-3.552 8-4.906667 12.138667-1.237333 3.808-1.92 7.797333-2.848 11.712-1.002667 2.048-5.034667 2.762667-2.496 7.168 0.170667 0.288-0.746667 1.418667-1.365333 1.898666-2.261333 1.749333-2.986667 3.594667-1.024 6.08 0.405333 0.501333 0.48 1.813333 0.117333 2.282667-5.226667 6.528-5.066667 15.232-9.12 22.208-0.490667 0.853333-1.952 1.098667-2.773333 1.834667-1.546667 1.397333-3.584 2.741333-4.213333 4.522666-0.405333 1.173333 1.312 3.093333 2.272 5.088l-7.253334 29.973334-2.048-0.682667c0.266667 3.456 1.738667 8.309333 0.501334 9.152-4.138667 2.794667-3.786667 7.978667-3.413334 10.165333 1.472 8.906667-7.562667 15.36-4.736 24.16 0.181333 0.533333-0.853333 1.365333-1.130666 2.133334-0.352 1.002667-0.64 2.069333-0.714667 3.125333-0.522667 6.549333-0.981333 13.088-1.44 19.637333-0.085333 1.269333-0.149333 2.549333-0.085333 3.829334 0.224 4.522667 0.96 9.088 0.64 13.578666-0.352 4.96-1.546667 10.026667 0.138666 14.752 1.130667 3.168 0.224 5.002667-1.738666 6.944-0.992 0.992-2.101333 1.888-3.050667 2.741334 1.941333 0.714667 4.458667 0.906667 4.874667 1.941333 0.917333 2.314667 1.066667 5.056 1.045333 7.616-0.021333 4.010667-0.426667 8.021333-0.661333 11.946667l0.394666-0.042667c0.618667 3.872 0.992 7.562667 1.877334 11.125333 0.437333 1.770667 3.04 3.893333 2.570666 4.853334-2.410667 5.013333 0.714667 8.394667 2.826667 12.074666 1.728 3.018667 1.301333 5.152-1.141333 5.92l6.538666 20.373334c0.330667 0.522667 1.429333 1.674667 1.877334 3.050666 1.685333 5.184 1.792 10.666667 5.248 15.605334 2.72 3.861333 4.234667 9.322667 4.266666 14.090666 0.032 4.384 1.973333 7.168 4 10.293334 2.496 3.84 7.808 6.165333 6.485334 11.402666 1.258667 0.650667 2.88 0.928 3.210666 1.738667 1.034667 2.538667 1.109333 5.568 2.432 7.893333 2.88 5.024 5.717333 10.282667 9.621334 14.453334 7.872 8.384 15.84 16.405333 20.448 27.338666 1.642667 3.904 5.706667 6.826667 8.821333 10.048 3.573333 3.712 7.445333 7.146667 10.933333 10.933334 2.837333 3.050667 5.226667 6.528 8.021334 9.621333 0.554667 0.618667 2.090667 0.352 3.210666 0.490667l-2.133333 2.912 5.365333 0.288c-0.853333 3.061333 3.605333 3.061333 3.338667 5.792 5.653333 0.064 5.301333 5.397333 6.912 7.178666 2.901333 1.237333 4.981333 1.664 6.485333 2.848 3.552 2.805333 6.773333 6.026667 10.24 8.981334 2.538667 2.176 5.034667 4.522667 7.904 6.218666 6.250667 3.701333 12.693333 7.072 19.093334 10.496 3.477333 1.856 7.125333 3.381333 10.56 5.301334 5.632 3.157333 9.237333 9.184 16 10.890666 3.957333 0.992 7.744 2.730667 11.52 4.352 2.346667 0.992 5.184 1.845333 6.634666 3.68 5.514667 7.008 13.685333 7.018667 21.194667 8.949334 2.026667 0.522667 3.84 1.898667 5.728 2.890666 1.354667 0.821333 3.306667 0.597333 4.928 1.216 4.842667 1.877333 9.546667 4.16 14.346667 6.144 2.858667 1.184 5.792 2.218667 8.725333 3.221334 3.754667 1.28 7.488 2.773333 11.349333 3.616 6.24 1.386667 13.013333 0.949333 18.176 5.621333 0.426667-0.576 1.088-1.898667 1.365334-1.813333 9.322667 2.645333 18.602667 5.429333 27.306666 8.010666 1.664-0.437333 3.68-1.706667 4.885334-1.162666 9.130667 4.128 18.666667 6.453333 28.629333 6.698666 3.904 0.096 7.84-0.821333 12.117333-1.312 0.565333 0.362667 2.357333 2.186667 3.050667 1.834667 3.52-1.781333 6.592-0.256 9.898667 0.394667 3.168 0.608 6.464 0.544 9.706666 0.896 4.778667 0.522667 9.557333 1.461333 14.357334 1.621333 4.490667 0.16 9.002667-0.362667 13.482666-0.810667 3.093333-0.309333 6.442667-0.373333 9.130667-1.696 3.562667-1.728 4.16-0.085333 4.8 3.573334 1.514667-1.12 2.698667-2.048 3.946667-2.890667 0.853333-0.565333 2.005333-1.621333 2.624-1.386667 4.565333 1.728 8.789333 1.088 11.317333-0.309333 7.146667 0.298667 12.725333 0.778667 18.304 0.650667 2.805333-0.064 5.6-1.184 8.384-1.909334 1.28-0.330667 2.485333-0.992 3.776-1.248 2.453333-0.469333 5.344-0.064 7.317333-1.248 4.778667-2.890667 9.930667-1.877333 14.933334-2.314666 5.930667-0.501333 12.202667 1.525333 17.632-2.570667 0.213333-0.170667 0.661333-0.16 0.96-0.074667 7.104 2.218667 12.906667-2.837333 19.530666-3.701333 7.232-0.949333 13.984-5.12 21.194667-6.773333 4.138667-0.949333 7.509333-7.146667 12.672-2.069334 1.386667-3.594667 3.424-5.322667 7.36-4.682666 1.493333 0.256 3.317333-0.970667 4.885333-1.749334 2.154667-1.077333 3.637333-2.496 6.773334-2.453333 3.882667 0.053333 7.733333-3.178667 11.754666-4.512 4.874667-1.610667 9.930667-2.72 14.901334-4.042667l0.682666 1.44 0.533334-2.378666c7.552-2.997333 14.592-5.397333 21.28-8.544 6.986667-3.274667 13.653333-7.274667 20.437333-10.965334 1.333333-0.501333 2.432-1.845333 3.818667-2.762666 6.933333-4.565333 13.92-9.034667 20.928-13.482667 0.650667-0.416 1.546667-0.416 2.261333-0.757333 3.605333-1.728 7.850667-2.805333 10.624-5.429334 4.170667-3.968 9.632-5.653333 13.941333-9.226666 0.266667-0.224 1.173333 0.405333 1.792 0.48 0.426667 0.053333 0.896-0.16 1.621334-0.309334l-0.853334-2.666666c4.202667-1.098667 8-2.208 10.304-6.805334 1.397333-2.794667 4.704-5.557333 7.701334-6.4 5.76-1.621333 8.746667-6.069333 12.586666-9.728 2.592-2.474667 4.618667-5.877333 7.637334-7.52 7.36-4.010667 12.8-9.962667 18.24-16.032 1.728-1.941333 3.146667-4.170667 4.874666-6.133333 3.754667-4.266667 9.045333-6.730667 11.2-13.066667 1.12-3.306667 5.173333-8.010667 10.464-7.466666 0.554667-1.354667 0.992-2.634667 1.610667-3.808 0.693333-1.322667 1.856-2.464 2.282667-3.84 0.853333-2.816 0.757333-6.048 2.133333-8.533334 2.506667-4.597333 5.92-8.682667 8.725333-13.141333a992.853333 992.853333 0 0 0 13.866667-22.837333c2.709333-4.586667 5.386667-9.205333 7.658667-14.005334 2.133333-4.469333 3.594667-9.248 5.546666-13.802666 2.357333-5.568 5.12-10.986667 7.36-16.608 1.216-3.114667 1.728-6.528 2.517334-9.813334 1.653333-6.816 6.912-12.277333 6.762666-19.914666-0.149333-7.424 5.578667-13.418667 5.557334-21.322667-0.021333-5.525333 0.618667-11.392 2.890666-17.066667 2.304-5.781333 2.698667-12.416 3.413334-18.741333 0.576-5.141333 0.618667-10.368 0.48-15.552-0.149333-5.525333-1.376-11.072-1.056-16.544 0.32-5.482667 1.994667-10.890667 3.029333-16.341333z m41.674667-4.8v29.706666a3.733333 3.733333 0 0 0 0.288 0.032c-0.405333 7.477333-1.098667 14.88-1.152 22.304-0.064 8.928-0.906667 17.664-3.818667 26.154667-0.448 1.28-0.32 2.752-0.597333 4.106667-0.352 1.76-0.832 3.498667-1.312 5.536h1.536c-0.309333 5.258667-0.149333 10.496-1.066667 15.541333-0.64 3.562667-3.2 6.741333-4.074667 10.293333-1.312 5.344-1.856 10.869333-2.794666 16.298667-0.277333 1.6-0.266667 3.936-1.28 4.618667-4.832 3.285333-3.562667 8.661333-5.12 13.045333a29.770667 29.770667 0 0 1-3.296 6.464c-1.194667 1.781333-3.434667 3.136-0.458667 5.312 0.16 0.106667-1.408 2.421333-2.005333 3.776-3.093333 7.018667-7.274667 13.813333-8.928 21.162667-1.664 7.424-6.613333 12.512-9.813334 18.762666-2.986667 5.802667-6.634667 11.264-10.208 16.736-1.386667 2.133333-3.413333 3.850667-5.141333 5.781334-0.661333 0.736-1.386667 1.472-1.856 2.336-1.28 2.485333-1.941333 5.482667-3.733333 7.477333-3.861333 4.298667-4.586667 9.834667-6.933334 14.688a25.301333 25.301333 0 0 1-6.677333 8.672c-1.856 1.482667-1.92 2.304-2.282667 4.448-0.458667 2.730667-3.050667 5.610667-5.493333 7.338667-2.346667 1.685333-5.248 1.941333-5.034667 6.101333 0.064 1.546667-2.56 3.989333-4.448 4.736-6.464 2.517333-8.64 8.458667-12.042666 13.525333-1.632 2.421333-3.872 4.490667-6.112 6.410667-5.376 4.597333-10.741333 9.269333-16.469334 13.429333-5.642667 4.085333-8.352 11.722667-16.266666 13.162667-1.354667 0.245333-2.165333 2.762667-3.562667 3.733333-3.573333 2.485333-7.573333 4.384-10.954667 7.093334-3.498667 2.805333-6.378667 6.357333-9.642666 9.472-2.656 2.549333-4.117333 6.901333-9.152 6.005333-0.746667-0.128-1.92 0.618667-2.517334 1.290667-2.517333 2.922667-4.874667 5.962667-7.296 8.970666l-1.034666-1.621333c-3.712 1.482667-7.808 2.410667-11.050667 4.608-3.552 2.410667-6.293333 5.994667-9.962667 9.621333-6.293333-1.333333-10.261333 4.437333-15.605333 8.981334l2.517333-4.149334-39.541333 19.221334c-3.114667-2.122667-5.184-4.288-7.648-4.928-1.28-0.330667-3.264 2.016-5.482667 3.52l3.178667 5.045333c-1.845333 0.554667-3.722667 1.077333-5.514667 1.770667-5.045333 1.984-9.973333 4.32-15.082666 6.122666-4.213333 1.482667-8.629333 2.4-12.938667 3.626667a4.725333 4.725333 0 0 0-1.813333 1.098667c-0.597333 0.533333-1.141333 1.877333-1.482667 1.802666-8.362667-1.781333-14.4 3.904-21.002667 6.997334-8.661333 4.064-18.090667 3.946667-26.88 6.624-6.325333 1.92-12.192 5.301333-17.045333 7.488-4.629333 0.213333-8.266667 0.501333-11.925333 0.522666-3.925333 0.032-7.861333-0.32-11.786667-0.213333-3.381333 0.085333-6.848 0.192-10.090667 1.024-5.28 1.354667-10.325333 3.669333-15.637333 4.821333-1.802667 0.384-4.096-1.514667-5.642667-1.536-3.2 0.928-6.4 1.984-9.653333 2.741334-3.36 0.789333-6.794667 1.312-10.208 1.856-0.533333 0.096-1.152-0.48-1.749333-0.512-1.525333-0.074667-3.061333-0.021333-5.632-0.021334a287.178667 287.178667 0 0 1-2.154667-2.357333c-2.453333 2.261333-4.906667 3.072-8.245333 3.498667-2.869333 0.373333-6.229333 1.429333-9.002667 0.949333-6.709333-1.152-13.088 1.376-19.616 0.864-2.122667-0.170667-4.138667-1.568-6.272-1.845333-1.109333-0.149333-2.378667 0.928-4.021333 1.653333l-0.416-3.36-5.162667-1.429333c1.813333 1.397333 2.752 2.144 3.658667 2.848-0.202667 0.490667-0.32 1.056-0.448 1.056-5.845333 0.021333-12.085333 1.290667-17.44-0.341334-6.997333-2.133333-15.253333 1.024-21.216-5.098666-0.213333-0.213333-1.386667 0.736-2.133334 0.746666-2.666667 0.032-5.365333-0.128-8.053333-0.170666-1.248-0.021333-2.72-0.352-3.722667 0.170666-5.866667 3.114667-11.701333-0.608-17.568 0.021334-1.12 0.117333-2.325333-2.304-3.701333-2.602667-7.104-1.525333-14.336-2.528-21.418667-4.16-3.232-0.746667-6.24-2.496-9.994666-4.053333-0.746667 0.149333-2.698667 1.002667-4.533334 0.821333-5.546667-0.544-11.2-0.938667-16.522666-2.4-7.530667-2.069333-14.72-5.269333-22.208-7.552-5.141333-1.578667-10.506667-2.432-15.765334-3.584-1.237333-0.277333-2.613333-0.224-3.690666-0.768-3.904-1.962667-7.712-4.106667-11.925334-6.389333l1.973334-2.314667c-0.181333-0.213333-0.341333-0.586667-0.565334-0.618667-2.474667-0.394667-5.184-1.557333-7.392-0.949333-6.88 1.898667-10.005333-4.288-15.018666-6.24-0.448-0.181333-0.96-0.394667-1.408-0.341333-6.656 0.768-11.136-3.936-16.501334-6.432-2.154667-0.992-3.829333-2.464-7.008-1.642667-2.058667 0.533333-5.418667-2.442667-7.658666-4.448-2.976-2.677333-5.6-5.269333-9.792-6.496-3.776-1.109333-6.890667-4.32-10.453334-6.336-5.397333-3.061333-11.093333-5.621333-16.373333-8.885333-6.688-4.128-13.013333-8.832-19.616-13.130667-1.749333-1.141333-4.16-1.344-5.792-2.602667-4.469333-3.456-8.608-7.370667-13.045333-10.890666-2.826667-2.250667-5.92-4.170667-8.981334-6.133334-5.045333-3.232-10.304-6.176-11.658666-12.821333a5.344 5.344 0 0 0-2.133334-2.912c-3.402667-2.432-7.722667-4.021333-10.229333-7.114667-3.146667-3.904-9.802667-5.706667-9.856-11.978666-1.248-2.08-2.496-4.170667-3.754667-6.24-0.746667-1.248-1.237333-3.018667-2.346666-3.616-7.722667-4.181333-12.341333-10.752-15.616-18.656-0.821333-1.984-3.018667-3.36-4.405334-5.152-5.802667-7.509333-11.776-14.912-17.162666-22.709334-1.493333-2.165333-0.64-5.802667-1.792-8.352-1.333333-2.986667-3.626667-5.546667-5.568-8.245333-1.322667-1.845333-4.288-3.04-2.112-6.368-6.432 0.96-6.72-5.450667-6.336-7.658667 1.002667-5.632-3.509333-8.373333-4.576-12.693333a21.802667 21.802667 0 0 0-1.418667-3.978667c-1.194667-2.56-2.592-5.024-3.712-7.616-0.458667-1.066667-0.426667-2.346667-0.682667-3.818666-2.154667-1.184-7.381333-0.736-3.52-6.464 0.64-0.96-0.586667-3.178667-1.024-5.184l-2.901333 0.938666c0.565333-1.205333 1.536-2.272 1.386667-3.114666-0.608-3.104-1.578667-6.144-2.410667-9.205334-2.101333-7.690667-4.48-15.210667-8.405333-22.304-1.472-2.666667-0.213333-6.752-0.554667-10.165333-0.234667-2.453333-0.405333-5.248-1.685333-7.178667-3.093333-4.704-3.701333-9.461333-2.752-14.901333 0.352-2.026667-1.066667-4.373333-1.728-6.741333 1.418667-1.44 4.981333-2.858667 0.181333-5.173334-0.853333-0.416-1.418667-2.090667-1.578667-3.264-1.056-7.424-0.021333-14.72 1.130667-22.069333 0.586667-3.701333 0.192-7.637333-0.234667-11.413333-0.746667-6.613333-2.005333-13.173333-2.72-19.786667-0.138667-1.344 1.205333-2.858667 1.877334-4.330667-0.618667-1.237333-1.28-2.549333-1.92-3.861333l1.248 0.245333c1.066667-3.413333 2.773333-6.773333 3.050666-10.250666 0.437333-5.418667-0.128-10.912-0.16-16.373334 0-0.8 0.501333-1.664 0.96-2.378666 0.789333-1.28 2.570667-2.549333 2.474667-3.690667-0.533333-6.101333-0.16-11.914667 2.986667-17.365333 0.341333-0.597333-0.704-1.866667-0.725334-2.826667-0.032-1.408 0.245333-2.837333 0.469334-4.234667 0.181333-1.109333 0.490667-2.197333 0.853333-3.754666l4.608 0.512c-7.178667-7.264-0.832-15.072-2.805333-22.357334 4.021333-2.058667 7.573333-14.602667 5.621333-18.506666 1.098667-1.952 2.101333-3.605333 2.954667-5.322667 0.778667-1.557333-0.714667-4.053333 2.218666-4.874667 0.469333-0.138667-0.266667-3.168 0.48-3.957333 1.706667-1.738667 3.968-2.890667 5.365334-3.84-0.501333-2.090667-1.76-4.234667-1.248-5.781333 2.645333-8.010667 3.989333-16.650667 9.034666-23.605334l1.173334 0.512c-0.32-2.24-0.64-4.490667-1.034667-7.104l2.922667 1.578667c0.16-0.32 0.469333-0.650667 0.394666-0.842667-1.6-4.117333-0.277333-7.253333 1.557334-11.306666 1.984-4.373333 6.730667-8.373333 4.885333-14.208 4.224-2.048 3.114667-6.741333 4.906667-10.037334 1.973333-3.605333 2.944-7.786667 5.024-11.338666 1.952-3.349333 5.12-5.994667 7.125333-9.322667 1.888-3.136 2.954667-6.752 4.458667-10.357333l1.834666 0.234666-1.098666-0.917333c1.493333-2.133333 3.264-4.149333 4.405333-6.453333 1.92-3.861333 3.114667-8.096 5.205333-11.829334 2.592-4.618667 4.992-9.674667 6.976-14.218666 1.952-4.490667 8.288-6.165333 7.317334-12.277334-0.202667-1.312 2.72-3.392 4.512-4.672 5.344-3.786667 7.114667-9.632 9.44-15.253333 0.618667-1.504 4.330667-0.842667 3.36-4.064-0.298667-0.992-0.288-2.069333-0.416-3.125333l5.28 1.717333c-1.962667-11.413333 7.637333-16.373333 12.192-24.042667 1.92-3.2 6.304-4.896 9.525333-7.338666 1.130667-0.853333 3.52-1.514667 0.896-3.466667-0.213333-0.170667-0.106667-1.290667 0.213333-1.568 3.285333-2.965333 6.72-5.770667 9.973334-8.778667 1.578667-1.461333 3.413333-3.029333 4.16-4.938666 1.088-2.752 4.16-3.701333 5.130666-5.408 2.357333-4.149333 8.938667-4.544 8.853334-10.506667-0.021333-0.544 1.301333-1.013333 1.525333-1.674667 0.853333-2.538667 5.653333-2.794667 3.968-6.901333-0.128-0.341333 1.813333-1.568 2.837333-2.304 2.282667-1.632 7.221333-0.64 5.792-6.08-0.106667-0.458667 3.338667-1.333333 3.818667-2.538667 2.922667-7.424 11.210667-9.130667 15.498667-15.018666 1.664-2.282667 3.392-4.64 5.546666-6.4 2.357333-1.92 5.248-3.189333 7.893334-4.757334 0.682667-0.405333 1.749333-0.768 1.92-1.344 1.344-4.821333 5.717333-4.650667 9.28-5.866666 0.8-0.266667 2.165333-0.544 2.24-0.992 0.874667-5.248 4.618667-5.312 7.424-5.077334 1.856-2.208 3.093333-4.064 4.704-5.493333 2.389333-2.101333 5.056-3.861333 7.594666-5.792 2.410667-1.856 4.757333-3.797333 7.221334-5.589333a1138.133333 1138.133333 0 0 1 18.101333-12.949334c1.301333-0.896 2.922667-1.333333 4.352-2.058666 4.853333-2.485333 9.728-4.96 14.506667-7.594667 0.565333-0.32 0.565333-1.685333 0.96-2.944l2.816 3.466667c0-5.194667 2.485333-7.797333 8.810666-8.341334 5.557333-0.490667 10.453333-1.525333 15.178667-5.205333 2.058667-1.6 6.197333-6.656 10.112-1.141333 3.285333-4.917333 16.672-9.728 19.178667-8.394667 4.32-1.984 7.68-4.618667 11.2-4.885333 4.778667-0.362667 9.045333-4.021333 14.357333-2.058667 0.682667 0.245333 4.437333-2.272 7.125333-2.634667 2.453333-0.330667 4.906667-0.554667 7.338667-0.96 2.357333-0.384 4.672-1.066667 7.04-1.408 1.258667-0.170667 2.581333 0.106667 4.693333 0.213334 1.749333-2.336 5.354667-2.304 8.288-0.149334 4.224 3.093333 7.381333 3.125333 10.24-1.664 2.698667 1.397333 4.992 2.421333 7.264-0.96 0.853333-1.248 4.032-0.917333 6.592-1.386666a297.333333 297.333333 0 0 0-0.778666-2.122667c3.946667 0 7.850667-0.554667 11.530666 0.117333 6.730667 1.237333 7.584 0.714667 15.445334-1.344 6.314667-1.653333 13.162667-1.312 19.786666-1.674666 0.874667-0.053333 1.813333 0.906667 2.784 1.429333 0.042667-0.053333 0.426667-0.298667 0.394667-0.490667-0.106667-0.778667-0.341333-1.546667-0.810667-3.466666 4.906667 0.426667 9.472 0.693333 13.994667 1.333333 0.554667 0.074667 0.853333 2.090667 1.397333 3.605333a158.933333 158.933333 0 0 1 2.730667-0.256l-2.112-5.536c9.621333 3.978667 18.325333-2.090667 27.498667 1.482667 4.629333 1.813333 10.666667-0.309333 16.042666-0.032 2.816 0.16 5.525333 2.165333 8.352 2.389333 3.36 0.266667 6.794667-0.426667 10.176-0.821333 0.789333-0.085333 1.973333-1.066667 2.218667-0.832 2.826667 2.634667 7.061333 1.44 9.92 3.797333 0.373333 0.309333 0.608 0.992 0.970667 1.045334 5.653333 0.746667 11.306667 1.429333 16.96 2.101333 3.946667 0.469333 7.904 1.312 11.850666 1.28 5.941333-0.032 10.293333 2.506667 14.752 6.176 2.058667 1.706667 6.144 0.906667 9.301334 1.312 1.578667 0.213333 3.306667 0.224 4.661333 0.928 5.525333 2.826667 10.922667 5.450667 17.301333 6.528 4.053333 0.672 7.552 4.448 11.733334 7.104 4.885333-3.797333 6.154667-3.754667 7.68 1.077333 4.458667-0.490667 13.130667 3.306667 13.824 4.832 2.922667 1.450667 4.64 2.229333 6.293333 3.136 2.133333 1.173333 4.266667 3.584 6.261333 3.445334 4.565333-0.341333 6.549333 3.626667 10.08 4.768 1.930667 0.64 3.84 1.418667 5.621334 2.346666 1.152 0.608 2.133333 1.589333 3.114666 2.464 0.213333 0.170667 0.234667 0.874667 0.256 0.874667 5.973333-1.205333 6.954667 7.541333 13.333334 6.506667 2.357333-0.384 7.168-0.16 6.869333 5.152l4.512-1.205334c-0.266667 8.117333 6.912 9.173333 11.626667 12.074667 3.050667 1.877333 5.333333 3.669333 7.146666 6.72 0.874667 1.504 3.093333 2.368 4.864 3.178667 2.389333 1.109333 4.981333 1.781333 7.381334 2.88 0.650667 0.298667 0.896 1.472 1.418666 2.4 2.421333-0.992 4.352-0.810667 6.133334 2.890666 1.226667 2.517333 4.906667 3.850667 7.786666 5.930667l-1.685333 2.805333 6.464-1.642666c-1.994667 3.424 0.128 5.194667 2.688 7.36 5.152 4.352 9.813333 9.269333 14.826667 13.802666 1.045333 0.96 3.061333 0.917333 4 1.930667 1.109333 1.216 1.525333 3.050667 2.592 5.386667 0.074667 0.010667 1.258667-0.032 2.197333 0.437333 1.194667 0.586667 4.906667-1.941333 3.253333 2.432 0.32 0.106667 0.618667 0.309333 0.928 0.32 4.032 0.010667 5.024 1.909333 4.597334 5.813333-0.106667 0.981333 3.690667 2.016 5.056 3.584 4.8 5.525333 9.386667 11.242667 13.898666 16.992 1.930667 2.453333 3.338667 5.322667 5.344 7.701334 4.010667 4.757333 8.405333 9.205333 12.373334 13.994666 1.706667 2.058667 2.581333 4.768 4.096 6.997334 2.922667 4.32 6.218667 8.394667 8.970666 12.810666 0.885333 1.429333 0.533333 3.626667 0.693334 5.002667 2.08 2.037333 4.458667 3.712 5.930666 5.962667 2.485333 3.786667 4.192 8.074667 6.624 11.893333 1.002667 1.578667 3.456 2.208 4.501334 3.765333 2.165333 3.242667 3.978667 6.752 5.685333 10.261334 3.573333 7.370667 6.965333 14.826667 10.496 22.208 1.045333 2.197333 2.464 4.234667 3.424 6.464 0.608 1.418667 0.672 3.082667 1.024 4.618666 0.234667 1.013333 0.234667 2.528 0.885333 2.933334 6.752 4.170667 8 11.050667 9.408 17.994666 0.373333 1.856 1.845333 3.488 2.986667 5.525334-1.450667 1.770667-0.362667 3.008 1.813333 5.44 2.709333 3.029333 4.842667 6.890667 6.154667 10.762666 1.28 3.754667 1.194667 7.968 1.749333 12.202667 0.864-0.16 1.706667-0.309333 1.248-0.234667 1.930667 5.397333 3.946667 10.368 5.482667 15.477334 1.610667 5.322667 2.848 10.752 4.074667 16.181333 0.341333 1.482667 0.053333 3.114667 0.778666 4.010667 0.672 0.864 1.813333 1.664 1.962667 2.613333 0.8 5.056 1.365333 10.144 1.994667 15.221333 0.8 6.4 1.418667 12.832 2.453333 19.2 0.597333 3.690667 2.101333 7.232 2.773333 10.912 0.746667 4.16 0.992 8.405333 1.472 12.608a5.013333 5.013333 0 0 0 0.426667 0.202667c0.053333 1.941333-0.032 3.904 0.245333 5.813333 0.512 3.648 1.450667 7.242667 1.824 10.901334 0.853333 8.170667 1.6 16.373333 1.984 24.576 0.074667 1.493333-1.664 3.082667-2.122666 3.872z m-222.752 72.661333c0.16-0.106667-0.181333-1.461333-0.608-1.728-3.392-2.154667-5.482667-6.933333-10.773334-5.376-0.405333 0.117333-1.162667-0.458667-1.568-0.885333-1.941333-2.026667-3.808-4.128-4.981333-5.418667-2.773333 3.178667-5.109333 5.824-7.754667 8.832-1.493333-1.194667-2.976-2.346667-4.736-3.733333l-3.306666 9.536c-0.16 0.064-0.341333 0.117333-0.501334 0.277333-4.522667 4.170667-6.378667 9.813333-8.192 15.413333-0.693333 2.176-0.778667 4.533333-1.376 6.752-0.789333 2.88-1.792 5.706667-2.773333 8.778667l-2.986667-0.341333c2.058667 2.933333 0.085333 10.858667-3.2 13.770666l2.346667 0.586667c-4.213333 6.101333-8.597333 11.968-12.448 18.154667-3.712 5.952-6.88 12.234667-10.346667 18.517333-3.349333-0.853333-11.594667 6.186667-10.826666 9.973333-0.917333-0.106667-1.813333-0.245333-2.581334-0.352-0.074667 1.450667 0.16 3.637333-0.256 3.765334-5.248 1.653333-5.034667 8.426667-10.058666 10.368-2.634667 1.013333-4.693333 3.637333-7.338667 4.48-4.778667 1.504-8.906667 3.2-9.312 10.133333-2.24-4.8-4.266667-4.736-6.581333-1.536-1.973333 2.741333-3.861333 5.632-6.282667 7.946667-2.88 2.752-6.293333 4.949333-9.952 7.754666a4274.346667 4274.346667 0 0 1-3.264-1.173333l-0.96 5.397333c-0.213333 0.042667-0.373333 0.117333-0.522667 0.106667-8.8-1.312-16.629333 1.92-23.722666 6.250667-5.098667 3.104-10.421333 7.04-15.893334 5.44-5.706667-1.664-9.365333 0.810667-13.312 2.954666-6.186667 3.36-12.906667 5.44-19.306666 8.213334-4.074667 1.749333-9.653333 0.064-14.549334-0.192-0.853333-0.042667-1.749333-1.109333-2.517333-1.002667-5.088 0.768-10.122667 1.888-15.232 2.570667-4.821333 0.650667-9.813333 0.373333-14.528 1.429333-8.426667 1.92-16.586667 1.92-24.618667-1.333333-4.789333-1.952-10.293333-1.386667-12.405333 1.76l-1.493333-3.402667c-3.584 1.824-6.325333-1.6-9.866667-1.557333a33.216 33.216 0 0 1-13.92-2.858667c-8.042667-3.701333-17.066667-5.184-24.309333-10.741333-0.725333-0.565333-2.261333 0-3.402667-0.096-0.832-0.074667-2.112-0.106667-2.389333-0.608-1.653333-2.986667-4.458667-3.818667-7.349334-5.194667-5.109333-2.432-9.664-6.005333-14.464-9.098667-1.706667-1.12-3.456-2.229333-5.461333-3.52l-0.96 1.397334-1.696-5.376-2.602667 2.186666-4.789333-6.933333c-3.370667 0.48-4.448-3.029333-6.250667-5.898667-1.056-1.674667-2.730667-2.954667-4.768-5.077333l-0.256-3.509333c-3.882667 2.88-3.445333 0.138667-3.370666-2.133334-4.245333 0.106667-4.896-3.168-6.261334-6.165333-1.909333-4.213333-7.36-6.112-7.712-11.616-0.074667-1.194667-3.050667-2.56-2.826666-3.338667 1.450667-5.216-1.738667-7.594667-3.818667-8.928-0.394667-3.648-0.522667-6.442667-1.066667-9.162666-0.384-1.92-1.237333-3.765333-2.048-5.568-0.576-1.269333-1.44-2.432-2.549333-4.266667l-5.621333-34.474667-3.072 0.181334c-2.656-4-4.864-8.917333-8.512-12.266667-2.368-2.176-6.826667-2.069333-10.346667-2.976l-0.288 1.141333 1.706667 1.610667-0.661334 0.810667-5.002666-3.136c-1.034667 0.544-2.645333 1.952-3.2 1.610666-2.773333-1.664-3.605333 0.544-5.536 1.557334-2.901333 1.525333-5.248 1.877333-3.626667 5.984 0.448 1.173333-0.917333 4.405333-1.386667 4.405333-5.333333-0.106667-3.328 4.458667-3.904 6.624-1.088 4.053333-2.336 9.045333-0.906666 12.597333 2.88 7.093333 5.024 14.250667 6.08 21.738667 0.245333 1.845333-1.472 4.032-1.056 5.76 1.194667 5.013333 2.816 9.92 4.693333 14.72 0.757333 1.92 3.093333 3.210667 3.850667 5.130667 1.706667 4.298667 2.773333 8.853333 4.298666 13.226666 1.216 3.466667 1.845333 7.893333 4.341334 10.026667 4.341333 3.733333 6.154667 8.586667 8.725333 13.194667 1.973333 3.562667 3.968 7.168 6.464 10.357333 2.218667 2.826667 5.088 5.141333 7.733333 7.616 4.117333 3.84 8.501333 7.253333 14.293334 8.192 0.224 0.042667 0.384 0.448 0.789333 0.96l-4.224 1.002667c3.029333 2.645333 5.408 4.661333 7.701333 6.752 3.882667 3.52 7.178667 8.672 11.712 10.197333 4.181333 1.408 5.365333 4.48 8.042667 6.613333 3.424 2.730667 7.445333 4.906667 11.52 6.592 4.192 1.738667 8.821333 2.389333 13.12 3.946667 2.506667 0.896 4.736 2.634667 7.093333 4.010667 1.365333 0.8 2.730667 1.642667 4.096 2.464 4 1.962667 8.192 3.872 12.586667 4.906666 6.133333 1.450667 11.306667 5.237333 18.304 5.184 4.629333-0.042667 9.365333 4.565333 13.92 7.317334 4.64 2.805333 5.973333 2.56 8.128-1.589334 2.741333 0.490667 5.248 1.216 7.786667 1.322667 2.986667 0.117333 6.432-1.312 8.874666-0.234667 3.946667 1.738667 7.925333 0.885333 11.84 1.610667 5.354667 0.992 10.986667 0.533333 16.362667 1.472 4.853333 0.853333 9.248 5.034667 14.634667 1.098667 1.034667-0.746667 3.626667-0.213333 5.013333 0.565333 4.234667 2.378667 7.765333 1.44 11.242667-1.408a3.168 3.168 0 0 1 2.282666-0.682667c4.138667 0.832 5.450667 0.725333 7.498667-1.301333 1.333333 7.68 5.824-0.213333 7.210667 1.258667a72.533333 72.533333 0 0 1-1.322667-0.736c1.493333-0.533333 2.464-1.066667 3.477333-1.226667 4.906667-0.725333 9.813333-1.248 14.688-2.069333 1.28-0.213333 2.421333-1.205333 3.978667-2.026667l0.618667 1.290667 6.506666-3.861334c-0.138667-1.269333-0.288-2.773333-0.426666-4.266666 0.384-0.042667 0.768-0.074667 1.173333-0.096l1.418667 5.589333c1.738667-0.32 3.168-0.618667 4.64-0.906667a727.424 727.424 0 0 0-0.277334-3.093333c2.24 0.213333 4.32 0.746667 6.325334 0.501333 1.546667-0.181333 3.274667-2.229333 4.426666-1.856 6.986667 2.197333 11.136-3.072 16.298667-5.674666 2.08-1.056 4.277333-1.909333 7.050667-3.136 3.957333 2.709333 6.762667-1.429333 10.453333-3.466667 3.605333-1.984 7.84-2.848 11.445333-4.085333v-5.834667c0.832 0 1.92-0.245333 2.08 0.032 2.88 4.832 6.442667 2.4 9.461334 0.64 4.821333-2.826667 9.610667-5.706667 13.312-10.24 2.325333-2.858667 5.824-4.746667 8.864-7.125333l-3.04-3.370667c3.264-3.904 6.592-4.266667 9.952-1.248 6.506667-3.84 11.84-8.725333 17.173333-13.354667 5.952-5.152 10.368-12.074667 15.584-18.112 1.237333-1.429333 3.050667-2.336 4.522667-3.573333 2.154667-1.845333 4.245333-3.765333 6.368-5.653333l-0.746667-0.874667 2.784 0.32c1.472-1.856 2.570667-3.008 3.381333-4.32 1.717333-2.773333 2.624-6.901333 5.066667-8.202667 4.298667-2.293333 5.461333-5.642667 6.730667-9.674666 0.490667-1.557333 2.752-2.549333 4.426666-3.989334-0.106667-0.8-1.013333-2.773333-0.469333-4.202666 2.293333-5.973333 4.821333-11.882667 7.626667-17.632 2.4-4.906667 5.941333-9.365333 7.786666-14.464 1.632-4.586667 1.664-9.792 2.261334-13.781334 1.290667-0.810667 2.986667-1.269333 3.232-2.133333 1.258667-4.544 2.912-9.173333 2.965333-13.802667 0.042667-5.045333-1.6-10.101333-2.325333-15.178666-0.256-1.834667-4.981333-2.666667-1.216-5.418667zM650.197333 403.648c2.048 2.261333-1.493333 9.226667 4.362667 7.2 1.738667 2.453333 2.72 5.418667 4.522667 6.08 5.696 2.037333 7.712 7.829333 11.648 11.456 3.626667 3.338667 7.786667 3.477333 11.146666 4.725333 5.226667 1.941333 11.776 0.704 17.706667 0.288 2.24-0.16 4.362667-2.517333 6.581333-2.592 7.402667-0.234667 10.453333-1.706667 12.842667-7.573333l1.909333 2.026667c3.328-3.893333 6.656-7.392 9.482667-11.264 1.472-2.026667 2.026667-4.714667 2.986667-7.104 0.277333-0.661333 0.416-1.408 0.810666-1.973334 6.976-10.197333 4.885333-20.896-1.898666-30.378666a80.373333 80.373333 0 0 0-15.093334-15.744c-6.346667-5.141333-13.205333-9.269333-20.437333-10.901334-8.288-1.845333-17.578667-1.44-26.026667 0.170667-8.362667 1.6-13.845333 8.938667-19.285333 15.264-2.144 2.496-4.245333 5.706667-4.704 8.853333-0.768 5.269333-0.213333 10.752-0.213333 16.117334a268.8 268.8 0 0 0-2.645334 1.6c1.269333 1.834667 3.189333 3.328 3.125334 4.736-0.16 3.584 1.269333 6.912 3.178666 9.013333z m-328.330666-6.986667c-0.234667 3.616 1.333333 6.88 3.168 9.024 1.962667 2.282667-1.493333 9.248 5.269333 6.848 0.533333 1.728 0.64 3.434667 1.493333 4.533334 3.008 3.850667 7.466667 5.888 10.24 10.677333 2.325333 4.021333 8.928 6.389333 14.08 7.701333 4.853333 1.226667 10.336 0.437333 15.466667-0.074666 3.2-0.309333 6.272-2.421333 9.429333-2.538667 7.285333-0.256 10.346667-1.685333 12.864-7.594667l1.856 2.005334c3.338667-3.904 6.688-7.392 9.514667-11.274667 1.472-2.016 2.005333-4.714667 2.976-7.104 0.266667-0.661333 0.416-1.397333 0.821333-1.962667 5.941333-8.288 5.205333-22.464-1.493333-30.101333-4.906667-5.610667-9.493333-11.232-15.530667-16.032-6.378667-5.077333-13.226667-9.248-20.448-10.869333-8.288-1.866667-17.568-1.408-26.026666 0.170666-8.213333 1.525333-13.568 8.810667-19.04 14.848-2.304 2.56-4.416 5.994667-4.928 9.290667-0.810667 5.269333-0.213333 10.741333-0.213334 16.096l-2.613333 1.589333c1.28 1.856 3.2 3.381333 3.114667 4.768z" p-id="1546" fill="#818CF8"></path></svg>